%TF.GenerationSoftware,KiCad,Pcbnew,5.1.6*%
%TF.CreationDate,2020-09-13T20:49:41+02:00*%
%TF.ProjectId,ISASTM,49534153-544d-42e6-9b69-6361645f7063,rev?*%
%TF.SameCoordinates,Original*%
%TF.FileFunction,Soldermask,Top*%
%TF.FilePolarity,Negative*%
%FSLAX46Y46*%
G04 Gerber Fmt 4.6, Leading zero omitted, Abs format (unit mm)*
G04 Created by KiCad (PCBNEW 5.1.6) date 2020-09-13 20:49:41*
%MOMM*%
%LPD*%
G01*
G04 APERTURE LIST*
%ADD10C,0.100000*%
%ADD11R,1.878000X7.720000*%
G04 APERTURE END LIST*
D10*
G36*
X116840000Y-116205000D02*
G01*
X34163000Y-116205000D01*
X34163000Y-108585000D01*
X116840000Y-108585000D01*
X116840000Y-116205000D01*
G37*
X116840000Y-116205000D02*
X34163000Y-116205000D01*
X34163000Y-108585000D01*
X116840000Y-108585000D01*
X116840000Y-116205000D01*
D11*
%TO.C,J1*%
X38100000Y-112395000D03*
X40640000Y-112395000D03*
X43180000Y-112395000D03*
X45720000Y-112395000D03*
X48260000Y-112395000D03*
X50800000Y-112395000D03*
X53340000Y-112395000D03*
X55880000Y-112395000D03*
X58420000Y-112395000D03*
X60960000Y-112395000D03*
X63500000Y-112395000D03*
X66040000Y-112395000D03*
X68580000Y-112395000D03*
X71120000Y-112395000D03*
X73660000Y-112395000D03*
X76200000Y-112395000D03*
X78740000Y-112395000D03*
X81280000Y-112395000D03*
X83820000Y-112395000D03*
X86360000Y-112395000D03*
X88900000Y-112395000D03*
X91440000Y-112395000D03*
X93980000Y-112395000D03*
X96520000Y-112395000D03*
X99060000Y-112395000D03*
X101600000Y-112395000D03*
X104140000Y-112395000D03*
X106680000Y-112395000D03*
X109220000Y-112395000D03*
X111760000Y-112395000D03*
X114300000Y-112395000D03*
%TD*%
M02*
