%TF.GenerationSoftware,KiCad,Pcbnew,5.1.6*%
%TF.CreationDate,2020-09-13T20:49:41+02:00*%
%TF.ProjectId,ISASTM,49534153-544d-42e6-9b69-6361645f7063,rev?*%
%TF.SameCoordinates,Original*%
%TF.FileFunction,Copper,L1,Top*%
%TF.FilePolarity,Positive*%
%FSLAX46Y46*%
G04 Gerber Fmt 4.6, Leading zero omitted, Abs format (unit mm)*
G04 Created by KiCad (PCBNEW 5.1.6) date 2020-09-13 20:49:41*
%MOMM*%
%LPD*%
G01*
G04 APERTURE LIST*
%TA.AperFunction,NonConductor*%
%ADD10C,0.300000*%
%TD*%
%TA.AperFunction,ConnectorPad*%
%ADD11R,1.778000X7.620000*%
%TD*%
G04 APERTURE END LIST*
D10*
X106938571Y-20212857D02*
X107152857Y-20284285D01*
X107224285Y-20355714D01*
X107295714Y-20498571D01*
X107295714Y-20712857D01*
X107224285Y-20855714D01*
X107152857Y-20927142D01*
X107010000Y-20998571D01*
X106438571Y-20998571D01*
X106438571Y-19498571D01*
X106938571Y-19498571D01*
X107081428Y-19570000D01*
X107152857Y-19641428D01*
X107224285Y-19784285D01*
X107224285Y-19927142D01*
X107152857Y-20070000D01*
X107081428Y-20141428D01*
X106938571Y-20212857D01*
X106438571Y-20212857D01*
X108581428Y-20998571D02*
X108581428Y-20212857D01*
X108510000Y-20070000D01*
X108367142Y-19998571D01*
X108081428Y-19998571D01*
X107938571Y-20070000D01*
X108581428Y-20927142D02*
X108438571Y-20998571D01*
X108081428Y-20998571D01*
X107938571Y-20927142D01*
X107867142Y-20784285D01*
X107867142Y-20641428D01*
X107938571Y-20498571D01*
X108081428Y-20427142D01*
X108438571Y-20427142D01*
X108581428Y-20355714D01*
X109938571Y-20927142D02*
X109795714Y-20998571D01*
X109510000Y-20998571D01*
X109367142Y-20927142D01*
X109295714Y-20855714D01*
X109224285Y-20712857D01*
X109224285Y-20284285D01*
X109295714Y-20141428D01*
X109367142Y-20070000D01*
X109510000Y-19998571D01*
X109795714Y-19998571D01*
X109938571Y-20070000D01*
X110581428Y-20998571D02*
X110581428Y-19498571D01*
X110724285Y-20427142D02*
X111152857Y-20998571D01*
X111152857Y-19998571D02*
X110581428Y-20570000D01*
X112938571Y-20427142D02*
X114081428Y-20427142D01*
X114795714Y-19998571D02*
X115938571Y-20427142D01*
X114795714Y-20855714D01*
D11*
%TO.P,J1,62*%
%TO.N,/A0*%
X38100000Y-112395000D03*
%TO.P,J1,61*%
%TO.N,/A1*%
X40640000Y-112395000D03*
%TO.P,J1,60*%
%TO.N,/A2*%
X43180000Y-112395000D03*
%TO.P,J1,59*%
%TO.N,/A3*%
X45720000Y-112395000D03*
%TO.P,J1,58*%
%TO.N,/A4*%
X48260000Y-112395000D03*
%TO.P,J1,57*%
%TO.N,/A5*%
X50800000Y-112395000D03*
%TO.P,J1,56*%
%TO.N,/A6*%
X53340000Y-112395000D03*
%TO.P,J1,55*%
%TO.N,/A7*%
X55880000Y-112395000D03*
%TO.P,J1,54*%
%TO.N,/A8*%
X58420000Y-112395000D03*
%TO.P,J1,53*%
%TO.N,/A9*%
X60960000Y-112395000D03*
%TO.P,J1,52*%
%TO.N,/A10*%
X63500000Y-112395000D03*
%TO.P,J1,51*%
%TO.N,/A11*%
X66040000Y-112395000D03*
%TO.P,J1,50*%
%TO.N,/A12*%
X68580000Y-112395000D03*
%TO.P,J1,49*%
%TO.N,/A13*%
X71120000Y-112395000D03*
%TO.P,J1,48*%
%TO.N,/A14*%
X73660000Y-112395000D03*
%TO.P,J1,47*%
%TO.N,/A15*%
X76200000Y-112395000D03*
%TO.P,J1,46*%
%TO.N,/A16*%
X78740000Y-112395000D03*
%TO.P,J1,45*%
%TO.N,/A17*%
X81280000Y-112395000D03*
%TO.P,J1,44*%
%TO.N,/A18*%
X83820000Y-112395000D03*
%TO.P,J1,43*%
%TO.N,/A19*%
X86360000Y-112395000D03*
%TO.P,J1,42*%
%TO.N,/AEN*%
X88900000Y-112395000D03*
%TO.P,J1,41*%
%TO.N,/IO_CH_RDY*%
X91440000Y-112395000D03*
%TO.P,J1,40*%
%TO.N,/D0*%
X93980000Y-112395000D03*
%TO.P,J1,39*%
%TO.N,/D1*%
X96520000Y-112395000D03*
%TO.P,J1,38*%
%TO.N,/D2*%
X99060000Y-112395000D03*
%TO.P,J1,37*%
%TO.N,/D3*%
X101600000Y-112395000D03*
%TO.P,J1,36*%
%TO.N,/D4*%
X104140000Y-112395000D03*
%TO.P,J1,35*%
%TO.N,/D5*%
X106680000Y-112395000D03*
%TO.P,J1,34*%
%TO.N,/D6*%
X109220000Y-112395000D03*
%TO.P,J1,33*%
%TO.N,/D7*%
X111760000Y-112395000D03*
%TO.P,J1,32*%
%TO.N,/~IO_CH_CK*%
X114300000Y-112395000D03*
%TD*%
M02*
