%TF.GenerationSoftware,KiCad,Pcbnew,5.1.6*%
%TF.CreationDate,2020-09-22T14:19:40+02:00*%
%TF.ProjectId,ISASTM,49534153-544d-42e6-9b69-6361645f7063,rev?*%
%TF.SameCoordinates,Original*%
%TF.FileFunction,Legend,Bot*%
%TF.FilePolarity,Positive*%
%FSLAX46Y46*%
G04 Gerber Fmt 4.6, Leading zero omitted, Abs format (unit mm)*
G04 Created by KiCad (PCBNEW 5.1.6) date 2020-09-22 14:19:40*
%MOMM*%
%LPD*%
G01*
G04 APERTURE LIST*
%ADD10C,0.150000*%
G04 APERTURE END LIST*
D10*
X113800000Y-104936785D02*
X113752380Y-104841547D01*
X113752380Y-104698690D01*
X113800000Y-104555833D01*
X113895238Y-104460595D01*
X113990476Y-104412976D01*
X114180952Y-104365357D01*
X114323809Y-104365357D01*
X114514285Y-104412976D01*
X114609523Y-104460595D01*
X114704761Y-104555833D01*
X114752380Y-104698690D01*
X114752380Y-104793928D01*
X114704761Y-104936785D01*
X114657142Y-104984404D01*
X114323809Y-104984404D01*
X114323809Y-104793928D01*
X114752380Y-105412976D02*
X113752380Y-105412976D01*
X114752380Y-105984404D01*
X113752380Y-105984404D01*
X114752380Y-106460595D02*
X113752380Y-106460595D01*
X113752380Y-106698690D01*
X113800000Y-106841547D01*
X113895238Y-106936785D01*
X113990476Y-106984404D01*
X114180952Y-107032023D01*
X114323809Y-107032023D01*
X114514285Y-106984404D01*
X114609523Y-106936785D01*
X114704761Y-106841547D01*
X114752380Y-106698690D01*
X114752380Y-106460595D01*
X112212380Y-103508214D02*
X111736190Y-103174880D01*
X112212380Y-102936785D02*
X111212380Y-102936785D01*
X111212380Y-103317738D01*
X111260000Y-103412976D01*
X111307619Y-103460595D01*
X111402857Y-103508214D01*
X111545714Y-103508214D01*
X111640952Y-103460595D01*
X111688571Y-103412976D01*
X111736190Y-103317738D01*
X111736190Y-102936785D01*
X111688571Y-103936785D02*
X111688571Y-104270119D01*
X112212380Y-104412976D02*
X112212380Y-103936785D01*
X111212380Y-103936785D01*
X111212380Y-104412976D01*
X112164761Y-104793928D02*
X112212380Y-104936785D01*
X112212380Y-105174880D01*
X112164761Y-105270119D01*
X112117142Y-105317738D01*
X112021904Y-105365357D01*
X111926666Y-105365357D01*
X111831428Y-105317738D01*
X111783809Y-105270119D01*
X111736190Y-105174880D01*
X111688571Y-104984404D01*
X111640952Y-104889166D01*
X111593333Y-104841547D01*
X111498095Y-104793928D01*
X111402857Y-104793928D01*
X111307619Y-104841547D01*
X111260000Y-104889166D01*
X111212380Y-104984404D01*
X111212380Y-105222500D01*
X111260000Y-105365357D01*
X111688571Y-105793928D02*
X111688571Y-106127261D01*
X112212380Y-106270119D02*
X112212380Y-105793928D01*
X111212380Y-105793928D01*
X111212380Y-106270119D01*
X111212380Y-106555833D02*
X111212380Y-107127261D01*
X112212380Y-106841547D02*
X111212380Y-106841547D01*
X109291428Y-104412976D02*
X109291428Y-105174880D01*
X109672380Y-104793928D02*
X108910476Y-104793928D01*
X108672380Y-106127261D02*
X108672380Y-105651071D01*
X109148571Y-105603452D01*
X109100952Y-105651071D01*
X109053333Y-105746309D01*
X109053333Y-105984404D01*
X109100952Y-106079642D01*
X109148571Y-106127261D01*
X109243809Y-106174880D01*
X109481904Y-106174880D01*
X109577142Y-106127261D01*
X109624761Y-106079642D01*
X109672380Y-105984404D01*
X109672380Y-105746309D01*
X109624761Y-105651071D01*
X109577142Y-105603452D01*
X108672380Y-106460595D02*
X109672380Y-106793928D01*
X108672380Y-107127261D01*
X107132380Y-103984404D02*
X106132380Y-103984404D01*
X107132380Y-105032023D02*
X106656190Y-104698690D01*
X107132380Y-104460595D02*
X106132380Y-104460595D01*
X106132380Y-104841547D01*
X106180000Y-104936785D01*
X106227619Y-104984404D01*
X106322857Y-105032023D01*
X106465714Y-105032023D01*
X106560952Y-104984404D01*
X106608571Y-104936785D01*
X106656190Y-104841547D01*
X106656190Y-104460595D01*
X107227619Y-106127261D02*
X107180000Y-106032023D01*
X107084761Y-105936785D01*
X106941904Y-105793928D01*
X106894285Y-105698690D01*
X106894285Y-105603452D01*
X107132380Y-105651071D02*
X107084761Y-105555833D01*
X106989523Y-105460595D01*
X106799047Y-105412976D01*
X106465714Y-105412976D01*
X106275238Y-105460595D01*
X106180000Y-105555833D01*
X106132380Y-105651071D01*
X106132380Y-105841547D01*
X106180000Y-105936785D01*
X106275238Y-106032023D01*
X106465714Y-106079642D01*
X106799047Y-106079642D01*
X106989523Y-106032023D01*
X107084761Y-105936785D01*
X107132380Y-105841547D01*
X107132380Y-105651071D01*
X106227619Y-106460595D02*
X106180000Y-106508214D01*
X106132380Y-106603452D01*
X106132380Y-106841547D01*
X106180000Y-106936785D01*
X106227619Y-106984404D01*
X106322857Y-107032023D01*
X106418095Y-107032023D01*
X106560952Y-106984404D01*
X107132380Y-106412976D01*
X107132380Y-107032023D01*
X104211428Y-104412976D02*
X104211428Y-105174880D01*
X103592380Y-106127261D02*
X103592380Y-105651071D01*
X104068571Y-105603452D01*
X104020952Y-105651071D01*
X103973333Y-105746309D01*
X103973333Y-105984404D01*
X104020952Y-106079642D01*
X104068571Y-106127261D01*
X104163809Y-106174880D01*
X104401904Y-106174880D01*
X104497142Y-106127261D01*
X104544761Y-106079642D01*
X104592380Y-105984404D01*
X104592380Y-105746309D01*
X104544761Y-105651071D01*
X104497142Y-105603452D01*
X103592380Y-106460595D02*
X104592380Y-106793928D01*
X103592380Y-107127261D01*
X102052380Y-103460595D02*
X101052380Y-103460595D01*
X101052380Y-103698690D01*
X101100000Y-103841547D01*
X101195238Y-103936785D01*
X101290476Y-103984404D01*
X101480952Y-104032023D01*
X101623809Y-104032023D01*
X101814285Y-103984404D01*
X101909523Y-103936785D01*
X102004761Y-103841547D01*
X102052380Y-103698690D01*
X102052380Y-103460595D01*
X102052380Y-105032023D02*
X101576190Y-104698690D01*
X102052380Y-104460595D02*
X101052380Y-104460595D01*
X101052380Y-104841547D01*
X101100000Y-104936785D01*
X101147619Y-104984404D01*
X101242857Y-105032023D01*
X101385714Y-105032023D01*
X101480952Y-104984404D01*
X101528571Y-104936785D01*
X101576190Y-104841547D01*
X101576190Y-104460595D01*
X102147619Y-106127261D02*
X102100000Y-106032023D01*
X102004761Y-105936785D01*
X101861904Y-105793928D01*
X101814285Y-105698690D01*
X101814285Y-105603452D01*
X102052380Y-105651071D02*
X102004761Y-105555833D01*
X101909523Y-105460595D01*
X101719047Y-105412976D01*
X101385714Y-105412976D01*
X101195238Y-105460595D01*
X101100000Y-105555833D01*
X101052380Y-105651071D01*
X101052380Y-105841547D01*
X101100000Y-105936785D01*
X101195238Y-106032023D01*
X101385714Y-106079642D01*
X101719047Y-106079642D01*
X101909523Y-106032023D01*
X102004761Y-105936785D01*
X102052380Y-105841547D01*
X102052380Y-105651071D01*
X101147619Y-106460595D02*
X101100000Y-106508214D01*
X101052380Y-106603452D01*
X101052380Y-106841547D01*
X101100000Y-106936785D01*
X101147619Y-106984404D01*
X101242857Y-107032023D01*
X101338095Y-107032023D01*
X101480952Y-106984404D01*
X102052380Y-106412976D01*
X102052380Y-107032023D01*
X99131428Y-103460595D02*
X99131428Y-104222500D01*
X99512380Y-105222500D02*
X99512380Y-104651071D01*
X99512380Y-104936785D02*
X98512380Y-104936785D01*
X98655238Y-104841547D01*
X98750476Y-104746309D01*
X98798095Y-104651071D01*
X98607619Y-105603452D02*
X98560000Y-105651071D01*
X98512380Y-105746309D01*
X98512380Y-105984404D01*
X98560000Y-106079642D01*
X98607619Y-106127261D01*
X98702857Y-106174880D01*
X98798095Y-106174880D01*
X98940952Y-106127261D01*
X99512380Y-105555833D01*
X99512380Y-106174880D01*
X98512380Y-106460595D02*
X99512380Y-106793928D01*
X98512380Y-107127261D01*
X95605000Y-103032023D02*
X95605000Y-104079642D01*
X96972380Y-103270119D02*
X95972380Y-103270119D01*
X96972380Y-103841547D01*
X95972380Y-103841547D01*
X95605000Y-104079642D02*
X95605000Y-105127261D01*
X95972380Y-104508214D02*
X95972380Y-104698690D01*
X96020000Y-104793928D01*
X96115238Y-104889166D01*
X96305714Y-104936785D01*
X96639047Y-104936785D01*
X96829523Y-104889166D01*
X96924761Y-104793928D01*
X96972380Y-104698690D01*
X96972380Y-104508214D01*
X96924761Y-104412976D01*
X96829523Y-104317738D01*
X96639047Y-104270119D01*
X96305714Y-104270119D01*
X96115238Y-104317738D01*
X96020000Y-104412976D01*
X95972380Y-104508214D01*
X95605000Y-105127261D02*
X95605000Y-106270119D01*
X95972380Y-105270119D02*
X96972380Y-105508214D01*
X96258095Y-105698690D01*
X96972380Y-105889166D01*
X95972380Y-106127261D01*
X95605000Y-106270119D02*
X95605000Y-107222500D01*
X96924761Y-106460595D02*
X96972380Y-106603452D01*
X96972380Y-106841547D01*
X96924761Y-106936785D01*
X96877142Y-106984404D01*
X96781904Y-107032023D01*
X96686666Y-107032023D01*
X96591428Y-106984404D01*
X96543809Y-106936785D01*
X96496190Y-106841547D01*
X96448571Y-106651071D01*
X96400952Y-106555833D01*
X96353333Y-106508214D01*
X96258095Y-106460595D01*
X96162857Y-106460595D01*
X96067619Y-106508214D01*
X96020000Y-106555833D01*
X95972380Y-106651071D01*
X95972380Y-106889166D01*
X96020000Y-107032023D01*
X94051428Y-103460595D02*
X94051428Y-104222500D01*
X94432380Y-103841547D02*
X93670476Y-103841547D01*
X94432380Y-105222500D02*
X94432380Y-104651071D01*
X94432380Y-104936785D02*
X93432380Y-104936785D01*
X93575238Y-104841547D01*
X93670476Y-104746309D01*
X93718095Y-104651071D01*
X93527619Y-105603452D02*
X93480000Y-105651071D01*
X93432380Y-105746309D01*
X93432380Y-105984404D01*
X93480000Y-106079642D01*
X93527619Y-106127261D01*
X93622857Y-106174880D01*
X93718095Y-106174880D01*
X93860952Y-106127261D01*
X94432380Y-105555833D01*
X94432380Y-106174880D01*
X93432380Y-106460595D02*
X94432380Y-106793928D01*
X93432380Y-107127261D01*
X90940000Y-104936785D02*
X90892380Y-104841547D01*
X90892380Y-104698690D01*
X90940000Y-104555833D01*
X91035238Y-104460595D01*
X91130476Y-104412976D01*
X91320952Y-104365357D01*
X91463809Y-104365357D01*
X91654285Y-104412976D01*
X91749523Y-104460595D01*
X91844761Y-104555833D01*
X91892380Y-104698690D01*
X91892380Y-104793928D01*
X91844761Y-104936785D01*
X91797142Y-104984404D01*
X91463809Y-104984404D01*
X91463809Y-104793928D01*
X91892380Y-105412976D02*
X90892380Y-105412976D01*
X91892380Y-105984404D01*
X90892380Y-105984404D01*
X91892380Y-106460595D02*
X90892380Y-106460595D01*
X90892380Y-106698690D01*
X90940000Y-106841547D01*
X91035238Y-106936785D01*
X91130476Y-106984404D01*
X91320952Y-107032023D01*
X91463809Y-107032023D01*
X91654285Y-106984404D01*
X91749523Y-106936785D01*
X91844761Y-106841547D01*
X91892380Y-106698690D01*
X91892380Y-106460595D01*
X87985000Y-101936785D02*
X87985000Y-102889166D01*
X89304761Y-102127261D02*
X89352380Y-102270119D01*
X89352380Y-102508214D01*
X89304761Y-102603452D01*
X89257142Y-102651071D01*
X89161904Y-102698690D01*
X89066666Y-102698690D01*
X88971428Y-102651071D01*
X88923809Y-102603452D01*
X88876190Y-102508214D01*
X88828571Y-102317738D01*
X88780952Y-102222500D01*
X88733333Y-102174880D01*
X88638095Y-102127261D01*
X88542857Y-102127261D01*
X88447619Y-102174880D01*
X88400000Y-102222500D01*
X88352380Y-102317738D01*
X88352380Y-102555833D01*
X88400000Y-102698690D01*
X87985000Y-102889166D02*
X87985000Y-104032023D01*
X89352380Y-103127261D02*
X88352380Y-103127261D01*
X89066666Y-103460595D01*
X88352380Y-103793928D01*
X89352380Y-103793928D01*
X87985000Y-104032023D02*
X87985000Y-104936785D01*
X88828571Y-104270119D02*
X88828571Y-104603452D01*
X89352380Y-104746309D02*
X89352380Y-104270119D01*
X88352380Y-104270119D01*
X88352380Y-104746309D01*
X87985000Y-104936785D02*
X87985000Y-106079642D01*
X89352380Y-105174880D02*
X88352380Y-105174880D01*
X89066666Y-105508214D01*
X88352380Y-105841547D01*
X89352380Y-105841547D01*
X87985000Y-106079642D02*
X87985000Y-107222500D01*
X88352380Y-106222500D02*
X89352380Y-106460595D01*
X88638095Y-106651071D01*
X89352380Y-106841547D01*
X88352380Y-107079642D01*
X85445000Y-102079642D02*
X85445000Y-103032023D01*
X86764761Y-102270119D02*
X86812380Y-102412976D01*
X86812380Y-102651071D01*
X86764761Y-102746309D01*
X86717142Y-102793928D01*
X86621904Y-102841547D01*
X86526666Y-102841547D01*
X86431428Y-102793928D01*
X86383809Y-102746309D01*
X86336190Y-102651071D01*
X86288571Y-102460595D01*
X86240952Y-102365357D01*
X86193333Y-102317738D01*
X86098095Y-102270119D01*
X86002857Y-102270119D01*
X85907619Y-102317738D01*
X85860000Y-102365357D01*
X85812380Y-102460595D01*
X85812380Y-102698690D01*
X85860000Y-102841547D01*
X85445000Y-103032023D02*
X85445000Y-104174880D01*
X86812380Y-103270119D02*
X85812380Y-103270119D01*
X86526666Y-103603452D01*
X85812380Y-103936785D01*
X86812380Y-103936785D01*
X85445000Y-104174880D02*
X85445000Y-105079642D01*
X86288571Y-104412976D02*
X86288571Y-104746309D01*
X86812380Y-104889166D02*
X86812380Y-104412976D01*
X85812380Y-104412976D01*
X85812380Y-104889166D01*
X85445000Y-105079642D02*
X85445000Y-106222500D01*
X86812380Y-105317738D02*
X85812380Y-105317738D01*
X86526666Y-105651071D01*
X85812380Y-105984404D01*
X86812380Y-105984404D01*
X85445000Y-106222500D02*
X85445000Y-107222500D01*
X86812380Y-107032023D02*
X86336190Y-106698690D01*
X86812380Y-106460595D02*
X85812380Y-106460595D01*
X85812380Y-106841547D01*
X85860000Y-106936785D01*
X85907619Y-106984404D01*
X86002857Y-107032023D01*
X86145714Y-107032023D01*
X86240952Y-106984404D01*
X86288571Y-106936785D01*
X86336190Y-106841547D01*
X86336190Y-106460595D01*
X82905000Y-104555833D02*
X82905000Y-105032023D01*
X84272380Y-104793928D02*
X83272380Y-104793928D01*
X82905000Y-105032023D02*
X82905000Y-106079642D01*
X83272380Y-105460595D02*
X83272380Y-105651071D01*
X83320000Y-105746309D01*
X83415238Y-105841547D01*
X83605714Y-105889166D01*
X83939047Y-105889166D01*
X84129523Y-105841547D01*
X84224761Y-105746309D01*
X84272380Y-105651071D01*
X84272380Y-105460595D01*
X84224761Y-105365357D01*
X84129523Y-105270119D01*
X83939047Y-105222500D01*
X83605714Y-105222500D01*
X83415238Y-105270119D01*
X83320000Y-105365357D01*
X83272380Y-105460595D01*
X82905000Y-106079642D02*
X82905000Y-107222500D01*
X83272380Y-106222500D02*
X84272380Y-106460595D01*
X83558095Y-106651071D01*
X84272380Y-106841547D01*
X83272380Y-107079642D01*
X80365000Y-104698690D02*
X80365000Y-105174880D01*
X81732380Y-104936785D02*
X80732380Y-104936785D01*
X80365000Y-105174880D02*
X80365000Y-106222500D01*
X80732380Y-105603452D02*
X80732380Y-105793928D01*
X80780000Y-105889166D01*
X80875238Y-105984404D01*
X81065714Y-106032023D01*
X81399047Y-106032023D01*
X81589523Y-105984404D01*
X81684761Y-105889166D01*
X81732380Y-105793928D01*
X81732380Y-105603452D01*
X81684761Y-105508214D01*
X81589523Y-105412976D01*
X81399047Y-105365357D01*
X81065714Y-105365357D01*
X80875238Y-105412976D01*
X80780000Y-105508214D01*
X80732380Y-105603452D01*
X80365000Y-106222500D02*
X80365000Y-107222500D01*
X81732380Y-107032023D02*
X81256190Y-106698690D01*
X81732380Y-106460595D02*
X80732380Y-106460595D01*
X80732380Y-106841547D01*
X80780000Y-106936785D01*
X80827619Y-106984404D01*
X80922857Y-107032023D01*
X81065714Y-107032023D01*
X81160952Y-106984404D01*
X81208571Y-106936785D01*
X81256190Y-106841547D01*
X81256190Y-106460595D01*
X77825000Y-102412976D02*
X77825000Y-103412976D01*
X79192380Y-102651071D02*
X78192380Y-102651071D01*
X78192380Y-102889166D01*
X78240000Y-103032023D01*
X78335238Y-103127261D01*
X78430476Y-103174880D01*
X78620952Y-103222500D01*
X78763809Y-103222500D01*
X78954285Y-103174880D01*
X79049523Y-103127261D01*
X79144761Y-103032023D01*
X79192380Y-102889166D01*
X79192380Y-102651071D01*
X77825000Y-103412976D02*
X77825000Y-104270119D01*
X78906666Y-103603452D02*
X78906666Y-104079642D01*
X79192380Y-103508214D02*
X78192380Y-103841547D01*
X79192380Y-104174880D01*
X77825000Y-104270119D02*
X77825000Y-105270119D01*
X79097142Y-105079642D02*
X79144761Y-105032023D01*
X79192380Y-104889166D01*
X79192380Y-104793928D01*
X79144761Y-104651071D01*
X79049523Y-104555833D01*
X78954285Y-104508214D01*
X78763809Y-104460595D01*
X78620952Y-104460595D01*
X78430476Y-104508214D01*
X78335238Y-104555833D01*
X78240000Y-104651071D01*
X78192380Y-104793928D01*
X78192380Y-104889166D01*
X78240000Y-105032023D01*
X78287619Y-105079642D01*
X77825000Y-105270119D02*
X77825000Y-106270119D01*
X79192380Y-105508214D02*
X78192380Y-105508214D01*
X79192380Y-106079642D02*
X78620952Y-105651071D01*
X78192380Y-106079642D02*
X78763809Y-105508214D01*
X77825000Y-106270119D02*
X77825000Y-107222500D01*
X78192380Y-106412976D02*
X78192380Y-107032023D01*
X78573333Y-106698690D01*
X78573333Y-106841547D01*
X78620952Y-106936785D01*
X78668571Y-106984404D01*
X78763809Y-107032023D01*
X79001904Y-107032023D01*
X79097142Y-106984404D01*
X79144761Y-106936785D01*
X79192380Y-106841547D01*
X79192380Y-106555833D01*
X79144761Y-106460595D01*
X79097142Y-106412976D01*
X76652380Y-103460595D02*
X75652380Y-103460595D01*
X75652380Y-103698690D01*
X75700000Y-103841547D01*
X75795238Y-103936785D01*
X75890476Y-103984404D01*
X76080952Y-104032023D01*
X76223809Y-104032023D01*
X76414285Y-103984404D01*
X76509523Y-103936785D01*
X76604761Y-103841547D01*
X76652380Y-103698690D01*
X76652380Y-103460595D01*
X76652380Y-105032023D02*
X76176190Y-104698690D01*
X76652380Y-104460595D02*
X75652380Y-104460595D01*
X75652380Y-104841547D01*
X75700000Y-104936785D01*
X75747619Y-104984404D01*
X75842857Y-105032023D01*
X75985714Y-105032023D01*
X76080952Y-104984404D01*
X76128571Y-104936785D01*
X76176190Y-104841547D01*
X76176190Y-104460595D01*
X76747619Y-106127261D02*
X76700000Y-106032023D01*
X76604761Y-105936785D01*
X76461904Y-105793928D01*
X76414285Y-105698690D01*
X76414285Y-105603452D01*
X76652380Y-105651071D02*
X76604761Y-105555833D01*
X76509523Y-105460595D01*
X76319047Y-105412976D01*
X75985714Y-105412976D01*
X75795238Y-105460595D01*
X75700000Y-105555833D01*
X75652380Y-105651071D01*
X75652380Y-105841547D01*
X75700000Y-105936785D01*
X75795238Y-106032023D01*
X75985714Y-106079642D01*
X76319047Y-106079642D01*
X76509523Y-106032023D01*
X76604761Y-105936785D01*
X76652380Y-105841547D01*
X76652380Y-105651071D01*
X75652380Y-106412976D02*
X75652380Y-107032023D01*
X76033333Y-106698690D01*
X76033333Y-106841547D01*
X76080952Y-106936785D01*
X76128571Y-106984404D01*
X76223809Y-107032023D01*
X76461904Y-107032023D01*
X76557142Y-106984404D01*
X76604761Y-106936785D01*
X76652380Y-106841547D01*
X76652380Y-106555833D01*
X76604761Y-106460595D01*
X76557142Y-106412976D01*
X72745000Y-102412976D02*
X72745000Y-103412976D01*
X74112380Y-102651071D02*
X73112380Y-102651071D01*
X73112380Y-102889166D01*
X73160000Y-103032023D01*
X73255238Y-103127261D01*
X73350476Y-103174880D01*
X73540952Y-103222500D01*
X73683809Y-103222500D01*
X73874285Y-103174880D01*
X73969523Y-103127261D01*
X74064761Y-103032023D01*
X74112380Y-102889166D01*
X74112380Y-102651071D01*
X72745000Y-103412976D02*
X72745000Y-104270119D01*
X73826666Y-103603452D02*
X73826666Y-104079642D01*
X74112380Y-103508214D02*
X73112380Y-103841547D01*
X74112380Y-104174880D01*
X72745000Y-104270119D02*
X72745000Y-105270119D01*
X74017142Y-105079642D02*
X74064761Y-105032023D01*
X74112380Y-104889166D01*
X74112380Y-104793928D01*
X74064761Y-104651071D01*
X73969523Y-104555833D01*
X73874285Y-104508214D01*
X73683809Y-104460595D01*
X73540952Y-104460595D01*
X73350476Y-104508214D01*
X73255238Y-104555833D01*
X73160000Y-104651071D01*
X73112380Y-104793928D01*
X73112380Y-104889166D01*
X73160000Y-105032023D01*
X73207619Y-105079642D01*
X72745000Y-105270119D02*
X72745000Y-106270119D01*
X74112380Y-105508214D02*
X73112380Y-105508214D01*
X74112380Y-106079642D02*
X73540952Y-105651071D01*
X73112380Y-106079642D02*
X73683809Y-105508214D01*
X72745000Y-106270119D02*
X72745000Y-107222500D01*
X74112380Y-107032023D02*
X74112380Y-106460595D01*
X74112380Y-106746309D02*
X73112380Y-106746309D01*
X73255238Y-106651071D01*
X73350476Y-106555833D01*
X73398095Y-106460595D01*
X71572380Y-103460595D02*
X70572380Y-103460595D01*
X70572380Y-103698690D01*
X70620000Y-103841547D01*
X70715238Y-103936785D01*
X70810476Y-103984404D01*
X71000952Y-104032023D01*
X71143809Y-104032023D01*
X71334285Y-103984404D01*
X71429523Y-103936785D01*
X71524761Y-103841547D01*
X71572380Y-103698690D01*
X71572380Y-103460595D01*
X71572380Y-105032023D02*
X71096190Y-104698690D01*
X71572380Y-104460595D02*
X70572380Y-104460595D01*
X70572380Y-104841547D01*
X70620000Y-104936785D01*
X70667619Y-104984404D01*
X70762857Y-105032023D01*
X70905714Y-105032023D01*
X71000952Y-104984404D01*
X71048571Y-104936785D01*
X71096190Y-104841547D01*
X71096190Y-104460595D01*
X71667619Y-106127261D02*
X71620000Y-106032023D01*
X71524761Y-105936785D01*
X71381904Y-105793928D01*
X71334285Y-105698690D01*
X71334285Y-105603452D01*
X71572380Y-105651071D02*
X71524761Y-105555833D01*
X71429523Y-105460595D01*
X71239047Y-105412976D01*
X70905714Y-105412976D01*
X70715238Y-105460595D01*
X70620000Y-105555833D01*
X70572380Y-105651071D01*
X70572380Y-105841547D01*
X70620000Y-105936785D01*
X70715238Y-106032023D01*
X70905714Y-106079642D01*
X71239047Y-106079642D01*
X71429523Y-106032023D01*
X71524761Y-105936785D01*
X71572380Y-105841547D01*
X71572380Y-105651071D01*
X71572380Y-107032023D02*
X71572380Y-106460595D01*
X71572380Y-106746309D02*
X70572380Y-106746309D01*
X70715238Y-106651071D01*
X70810476Y-106555833D01*
X70858095Y-106460595D01*
X67665000Y-100555833D02*
X67665000Y-101555833D01*
X69032380Y-101365357D02*
X68556190Y-101032023D01*
X69032380Y-100793928D02*
X68032380Y-100793928D01*
X68032380Y-101174880D01*
X68080000Y-101270119D01*
X68127619Y-101317738D01*
X68222857Y-101365357D01*
X68365714Y-101365357D01*
X68460952Y-101317738D01*
X68508571Y-101270119D01*
X68556190Y-101174880D01*
X68556190Y-100793928D01*
X67665000Y-101555833D02*
X67665000Y-102460595D01*
X68508571Y-101793928D02*
X68508571Y-102127261D01*
X69032380Y-102270119D02*
X69032380Y-101793928D01*
X68032380Y-101793928D01*
X68032380Y-102270119D01*
X67665000Y-102460595D02*
X67665000Y-103317738D01*
X68508571Y-103032023D02*
X68508571Y-102698690D01*
X69032380Y-102698690D02*
X68032380Y-102698690D01*
X68032380Y-103174880D01*
X67665000Y-103317738D02*
X67665000Y-104317738D01*
X69032380Y-104127261D02*
X68556190Y-103793928D01*
X69032380Y-103555833D02*
X68032380Y-103555833D01*
X68032380Y-103936785D01*
X68080000Y-104032023D01*
X68127619Y-104079642D01*
X68222857Y-104127261D01*
X68365714Y-104127261D01*
X68460952Y-104079642D01*
X68508571Y-104032023D01*
X68556190Y-103936785D01*
X68556190Y-103555833D01*
X67665000Y-104317738D02*
X67665000Y-105222500D01*
X68508571Y-104555833D02*
X68508571Y-104889166D01*
X69032380Y-105032023D02*
X69032380Y-104555833D01*
X68032380Y-104555833D01*
X68032380Y-105032023D01*
X67665000Y-105222500D02*
X67665000Y-106174880D01*
X68984761Y-105412976D02*
X69032380Y-105555833D01*
X69032380Y-105793928D01*
X68984761Y-105889166D01*
X68937142Y-105936785D01*
X68841904Y-105984404D01*
X68746666Y-105984404D01*
X68651428Y-105936785D01*
X68603809Y-105889166D01*
X68556190Y-105793928D01*
X68508571Y-105603452D01*
X68460952Y-105508214D01*
X68413333Y-105460595D01*
X68318095Y-105412976D01*
X68222857Y-105412976D01*
X68127619Y-105460595D01*
X68080000Y-105508214D01*
X68032380Y-105603452D01*
X68032380Y-105841547D01*
X68080000Y-105984404D01*
X67665000Y-106174880D02*
X67665000Y-107222500D01*
X69032380Y-106412976D02*
X68032380Y-106412976D01*
X68508571Y-106412976D02*
X68508571Y-106984404D01*
X69032380Y-106984404D02*
X68032380Y-106984404D01*
X66397142Y-105222500D02*
X66444761Y-105174880D01*
X66492380Y-105032023D01*
X66492380Y-104936785D01*
X66444761Y-104793928D01*
X66349523Y-104698690D01*
X66254285Y-104651071D01*
X66063809Y-104603452D01*
X65920952Y-104603452D01*
X65730476Y-104651071D01*
X65635238Y-104698690D01*
X65540000Y-104793928D01*
X65492380Y-104936785D01*
X65492380Y-105032023D01*
X65540000Y-105174880D01*
X65587619Y-105222500D01*
X66492380Y-106127261D02*
X66492380Y-105651071D01*
X65492380Y-105651071D01*
X66492380Y-106460595D02*
X65492380Y-106460595D01*
X66492380Y-107032023D02*
X65920952Y-106603452D01*
X65492380Y-107032023D02*
X66063809Y-106460595D01*
X63952380Y-103984404D02*
X62952380Y-103984404D01*
X63952380Y-105032023D02*
X63476190Y-104698690D01*
X63952380Y-104460595D02*
X62952380Y-104460595D01*
X62952380Y-104841547D01*
X63000000Y-104936785D01*
X63047619Y-104984404D01*
X63142857Y-105032023D01*
X63285714Y-105032023D01*
X63380952Y-104984404D01*
X63428571Y-104936785D01*
X63476190Y-104841547D01*
X63476190Y-104460595D01*
X64047619Y-106127261D02*
X64000000Y-106032023D01*
X63904761Y-105936785D01*
X63761904Y-105793928D01*
X63714285Y-105698690D01*
X63714285Y-105603452D01*
X63952380Y-105651071D02*
X63904761Y-105555833D01*
X63809523Y-105460595D01*
X63619047Y-105412976D01*
X63285714Y-105412976D01*
X63095238Y-105460595D01*
X63000000Y-105555833D01*
X62952380Y-105651071D01*
X62952380Y-105841547D01*
X63000000Y-105936785D01*
X63095238Y-106032023D01*
X63285714Y-106079642D01*
X63619047Y-106079642D01*
X63809523Y-106032023D01*
X63904761Y-105936785D01*
X63952380Y-105841547D01*
X63952380Y-105651071D01*
X62952380Y-106412976D02*
X62952380Y-107079642D01*
X63952380Y-106651071D01*
X61412380Y-103984404D02*
X60412380Y-103984404D01*
X61412380Y-105032023D02*
X60936190Y-104698690D01*
X61412380Y-104460595D02*
X60412380Y-104460595D01*
X60412380Y-104841547D01*
X60460000Y-104936785D01*
X60507619Y-104984404D01*
X60602857Y-105032023D01*
X60745714Y-105032023D01*
X60840952Y-104984404D01*
X60888571Y-104936785D01*
X60936190Y-104841547D01*
X60936190Y-104460595D01*
X61507619Y-106127261D02*
X61460000Y-106032023D01*
X61364761Y-105936785D01*
X61221904Y-105793928D01*
X61174285Y-105698690D01*
X61174285Y-105603452D01*
X61412380Y-105651071D02*
X61364761Y-105555833D01*
X61269523Y-105460595D01*
X61079047Y-105412976D01*
X60745714Y-105412976D01*
X60555238Y-105460595D01*
X60460000Y-105555833D01*
X60412380Y-105651071D01*
X60412380Y-105841547D01*
X60460000Y-105936785D01*
X60555238Y-106032023D01*
X60745714Y-106079642D01*
X61079047Y-106079642D01*
X61269523Y-106032023D01*
X61364761Y-105936785D01*
X61412380Y-105841547D01*
X61412380Y-105651071D01*
X60412380Y-106936785D02*
X60412380Y-106746309D01*
X60460000Y-106651071D01*
X60507619Y-106603452D01*
X60650476Y-106508214D01*
X60840952Y-106460595D01*
X61221904Y-106460595D01*
X61317142Y-106508214D01*
X61364761Y-106555833D01*
X61412380Y-106651071D01*
X61412380Y-106841547D01*
X61364761Y-106936785D01*
X61317142Y-106984404D01*
X61221904Y-107032023D01*
X60983809Y-107032023D01*
X60888571Y-106984404D01*
X60840952Y-106936785D01*
X60793333Y-106841547D01*
X60793333Y-106651071D01*
X60840952Y-106555833D01*
X60888571Y-106508214D01*
X60983809Y-106460595D01*
X58872380Y-103984404D02*
X57872380Y-103984404D01*
X58872380Y-105032023D02*
X58396190Y-104698690D01*
X58872380Y-104460595D02*
X57872380Y-104460595D01*
X57872380Y-104841547D01*
X57920000Y-104936785D01*
X57967619Y-104984404D01*
X58062857Y-105032023D01*
X58205714Y-105032023D01*
X58300952Y-104984404D01*
X58348571Y-104936785D01*
X58396190Y-104841547D01*
X58396190Y-104460595D01*
X58967619Y-106127261D02*
X58920000Y-106032023D01*
X58824761Y-105936785D01*
X58681904Y-105793928D01*
X58634285Y-105698690D01*
X58634285Y-105603452D01*
X58872380Y-105651071D02*
X58824761Y-105555833D01*
X58729523Y-105460595D01*
X58539047Y-105412976D01*
X58205714Y-105412976D01*
X58015238Y-105460595D01*
X57920000Y-105555833D01*
X57872380Y-105651071D01*
X57872380Y-105841547D01*
X57920000Y-105936785D01*
X58015238Y-106032023D01*
X58205714Y-106079642D01*
X58539047Y-106079642D01*
X58729523Y-106032023D01*
X58824761Y-105936785D01*
X58872380Y-105841547D01*
X58872380Y-105651071D01*
X57872380Y-106984404D02*
X57872380Y-106508214D01*
X58348571Y-106460595D01*
X58300952Y-106508214D01*
X58253333Y-106603452D01*
X58253333Y-106841547D01*
X58300952Y-106936785D01*
X58348571Y-106984404D01*
X58443809Y-107032023D01*
X58681904Y-107032023D01*
X58777142Y-106984404D01*
X58824761Y-106936785D01*
X58872380Y-106841547D01*
X58872380Y-106603452D01*
X58824761Y-106508214D01*
X58777142Y-106460595D01*
X56332380Y-103984404D02*
X55332380Y-103984404D01*
X56332380Y-105032023D02*
X55856190Y-104698690D01*
X56332380Y-104460595D02*
X55332380Y-104460595D01*
X55332380Y-104841547D01*
X55380000Y-104936785D01*
X55427619Y-104984404D01*
X55522857Y-105032023D01*
X55665714Y-105032023D01*
X55760952Y-104984404D01*
X55808571Y-104936785D01*
X55856190Y-104841547D01*
X55856190Y-104460595D01*
X56427619Y-106127261D02*
X56380000Y-106032023D01*
X56284761Y-105936785D01*
X56141904Y-105793928D01*
X56094285Y-105698690D01*
X56094285Y-105603452D01*
X56332380Y-105651071D02*
X56284761Y-105555833D01*
X56189523Y-105460595D01*
X55999047Y-105412976D01*
X55665714Y-105412976D01*
X55475238Y-105460595D01*
X55380000Y-105555833D01*
X55332380Y-105651071D01*
X55332380Y-105841547D01*
X55380000Y-105936785D01*
X55475238Y-106032023D01*
X55665714Y-106079642D01*
X55999047Y-106079642D01*
X56189523Y-106032023D01*
X56284761Y-105936785D01*
X56332380Y-105841547D01*
X56332380Y-105651071D01*
X55665714Y-106936785D02*
X56332380Y-106936785D01*
X55284761Y-106698690D02*
X55999047Y-106460595D01*
X55999047Y-107079642D01*
X53792380Y-103984404D02*
X52792380Y-103984404D01*
X53792380Y-105032023D02*
X53316190Y-104698690D01*
X53792380Y-104460595D02*
X52792380Y-104460595D01*
X52792380Y-104841547D01*
X52840000Y-104936785D01*
X52887619Y-104984404D01*
X52982857Y-105032023D01*
X53125714Y-105032023D01*
X53220952Y-104984404D01*
X53268571Y-104936785D01*
X53316190Y-104841547D01*
X53316190Y-104460595D01*
X53887619Y-106127261D02*
X53840000Y-106032023D01*
X53744761Y-105936785D01*
X53601904Y-105793928D01*
X53554285Y-105698690D01*
X53554285Y-105603452D01*
X53792380Y-105651071D02*
X53744761Y-105555833D01*
X53649523Y-105460595D01*
X53459047Y-105412976D01*
X53125714Y-105412976D01*
X52935238Y-105460595D01*
X52840000Y-105555833D01*
X52792380Y-105651071D01*
X52792380Y-105841547D01*
X52840000Y-105936785D01*
X52935238Y-106032023D01*
X53125714Y-106079642D01*
X53459047Y-106079642D01*
X53649523Y-106032023D01*
X53744761Y-105936785D01*
X53792380Y-105841547D01*
X53792380Y-105651071D01*
X52792380Y-106412976D02*
X52792380Y-107032023D01*
X53173333Y-106698690D01*
X53173333Y-106841547D01*
X53220952Y-106936785D01*
X53268571Y-106984404D01*
X53363809Y-107032023D01*
X53601904Y-107032023D01*
X53697142Y-106984404D01*
X53744761Y-106936785D01*
X53792380Y-106841547D01*
X53792380Y-106555833D01*
X53744761Y-106460595D01*
X53697142Y-106412976D01*
X49885000Y-102412976D02*
X49885000Y-103412976D01*
X51252380Y-102651071D02*
X50252380Y-102651071D01*
X50252380Y-102889166D01*
X50300000Y-103032023D01*
X50395238Y-103127261D01*
X50490476Y-103174880D01*
X50680952Y-103222500D01*
X50823809Y-103222500D01*
X51014285Y-103174880D01*
X51109523Y-103127261D01*
X51204761Y-103032023D01*
X51252380Y-102889166D01*
X51252380Y-102651071D01*
X49885000Y-103412976D02*
X49885000Y-104270119D01*
X50966666Y-103603452D02*
X50966666Y-104079642D01*
X51252380Y-103508214D02*
X50252380Y-103841547D01*
X51252380Y-104174880D01*
X49885000Y-104270119D02*
X49885000Y-105270119D01*
X51157142Y-105079642D02*
X51204761Y-105032023D01*
X51252380Y-104889166D01*
X51252380Y-104793928D01*
X51204761Y-104651071D01*
X51109523Y-104555833D01*
X51014285Y-104508214D01*
X50823809Y-104460595D01*
X50680952Y-104460595D01*
X50490476Y-104508214D01*
X50395238Y-104555833D01*
X50300000Y-104651071D01*
X50252380Y-104793928D01*
X50252380Y-104889166D01*
X50300000Y-105032023D01*
X50347619Y-105079642D01*
X49885000Y-105270119D02*
X49885000Y-106270119D01*
X51252380Y-105508214D02*
X50252380Y-105508214D01*
X51252380Y-106079642D02*
X50680952Y-105651071D01*
X50252380Y-106079642D02*
X50823809Y-105508214D01*
X49885000Y-106270119D02*
X49885000Y-107222500D01*
X50347619Y-106460595D02*
X50300000Y-106508214D01*
X50252380Y-106603452D01*
X50252380Y-106841547D01*
X50300000Y-106936785D01*
X50347619Y-106984404D01*
X50442857Y-107032023D01*
X50538095Y-107032023D01*
X50680952Y-106984404D01*
X51252380Y-106412976D01*
X51252380Y-107032023D01*
X47712380Y-105555833D02*
X47712380Y-106127261D01*
X48712380Y-105841547D02*
X47712380Y-105841547D01*
X48617142Y-107032023D02*
X48664761Y-106984404D01*
X48712380Y-106841547D01*
X48712380Y-106746309D01*
X48664761Y-106603452D01*
X48569523Y-106508214D01*
X48474285Y-106460595D01*
X48283809Y-106412976D01*
X48140952Y-106412976D01*
X47950476Y-106460595D01*
X47855238Y-106508214D01*
X47760000Y-106603452D01*
X47712380Y-106746309D01*
X47712380Y-106841547D01*
X47760000Y-106984404D01*
X47807619Y-107032023D01*
X45886666Y-104841547D02*
X45886666Y-105317738D01*
X46172380Y-104746309D02*
X45172380Y-105079642D01*
X46172380Y-105412976D01*
X46172380Y-106222500D02*
X46172380Y-105746309D01*
X45172380Y-105746309D01*
X45648571Y-106555833D02*
X45648571Y-106889166D01*
X46172380Y-107032023D02*
X46172380Y-106555833D01*
X45172380Y-106555833D01*
X45172380Y-107032023D01*
X43251428Y-104412976D02*
X43251428Y-105174880D01*
X43632380Y-104793928D02*
X42870476Y-104793928D01*
X42632380Y-106127261D02*
X42632380Y-105651071D01*
X43108571Y-105603452D01*
X43060952Y-105651071D01*
X43013333Y-105746309D01*
X43013333Y-105984404D01*
X43060952Y-106079642D01*
X43108571Y-106127261D01*
X43203809Y-106174880D01*
X43441904Y-106174880D01*
X43537142Y-106127261D01*
X43584761Y-106079642D01*
X43632380Y-105984404D01*
X43632380Y-105746309D01*
X43584761Y-105651071D01*
X43537142Y-105603452D01*
X42632380Y-106460595D02*
X43632380Y-106793928D01*
X42632380Y-107127261D01*
X40092380Y-104651071D02*
X40092380Y-104841547D01*
X40140000Y-104936785D01*
X40235238Y-105032023D01*
X40425714Y-105079642D01*
X40759047Y-105079642D01*
X40949523Y-105032023D01*
X41044761Y-104936785D01*
X41092380Y-104841547D01*
X41092380Y-104651071D01*
X41044761Y-104555833D01*
X40949523Y-104460595D01*
X40759047Y-104412976D01*
X40425714Y-104412976D01*
X40235238Y-104460595D01*
X40140000Y-104555833D01*
X40092380Y-104651071D01*
X41044761Y-105460595D02*
X41092380Y-105603452D01*
X41092380Y-105841547D01*
X41044761Y-105936785D01*
X40997142Y-105984404D01*
X40901904Y-106032023D01*
X40806666Y-106032023D01*
X40711428Y-105984404D01*
X40663809Y-105936785D01*
X40616190Y-105841547D01*
X40568571Y-105651071D01*
X40520952Y-105555833D01*
X40473333Y-105508214D01*
X40378095Y-105460595D01*
X40282857Y-105460595D01*
X40187619Y-105508214D01*
X40140000Y-105555833D01*
X40092380Y-105651071D01*
X40092380Y-105889166D01*
X40140000Y-106032023D01*
X40997142Y-107032023D02*
X41044761Y-106984404D01*
X41092380Y-106841547D01*
X41092380Y-106746309D01*
X41044761Y-106603452D01*
X40949523Y-106508214D01*
X40854285Y-106460595D01*
X40663809Y-106412976D01*
X40520952Y-106412976D01*
X40330476Y-106460595D01*
X40235238Y-106508214D01*
X40140000Y-106603452D01*
X40092380Y-106746309D01*
X40092380Y-106841547D01*
X40140000Y-106984404D01*
X40187619Y-107032023D01*
X37600000Y-104936785D02*
X37552380Y-104841547D01*
X37552380Y-104698690D01*
X37600000Y-104555833D01*
X37695238Y-104460595D01*
X37790476Y-104412976D01*
X37980952Y-104365357D01*
X38123809Y-104365357D01*
X38314285Y-104412976D01*
X38409523Y-104460595D01*
X38504761Y-104555833D01*
X38552380Y-104698690D01*
X38552380Y-104793928D01*
X38504761Y-104936785D01*
X38457142Y-104984404D01*
X38123809Y-104984404D01*
X38123809Y-104793928D01*
X38552380Y-105412976D02*
X37552380Y-105412976D01*
X38552380Y-105984404D01*
X37552380Y-105984404D01*
X38552380Y-106460595D02*
X37552380Y-106460595D01*
X37552380Y-106698690D01*
X37600000Y-106841547D01*
X37695238Y-106936785D01*
X37790476Y-106984404D01*
X37980952Y-107032023D01*
X38123809Y-107032023D01*
X38314285Y-106984404D01*
X38409523Y-106936785D01*
X38504761Y-106841547D01*
X38552380Y-106698690D01*
X38552380Y-106460595D01*
M02*
