%TF.GenerationSoftware,KiCad,Pcbnew,5.1.6*%
%TF.CreationDate,2020-09-22T14:19:40+02:00*%
%TF.ProjectId,ISASTM,49534153-544d-42e6-9b69-6361645f7063,rev?*%
%TF.SameCoordinates,Original*%
%TF.FileFunction,Legend,Top*%
%TF.FilePolarity,Positive*%
%FSLAX46Y46*%
G04 Gerber Fmt 4.6, Leading zero omitted, Abs format (unit mm)*
G04 Created by KiCad (PCBNEW 5.1.6) date 2020-09-22 14:19:40*
%MOMM*%
%LPD*%
G01*
G04 APERTURE LIST*
%ADD10C,0.150000*%
%ADD11C,0.300000*%
%ADD12C,0.450000*%
%ADD13C,0.500000*%
%ADD14C,0.120000*%
G04 APERTURE END LIST*
D10*
X103938095Y-30477380D02*
X103938095Y-31286904D01*
X103985714Y-31382142D01*
X104033333Y-31429761D01*
X104128571Y-31477380D01*
X104319047Y-31477380D01*
X104414285Y-31429761D01*
X104461904Y-31382142D01*
X104509523Y-31286904D01*
X104509523Y-30477380D01*
X104938095Y-31429761D02*
X105080952Y-31477380D01*
X105319047Y-31477380D01*
X105414285Y-31429761D01*
X105461904Y-31382142D01*
X105509523Y-31286904D01*
X105509523Y-31191666D01*
X105461904Y-31096428D01*
X105414285Y-31048809D01*
X105319047Y-31001190D01*
X105128571Y-30953571D01*
X105033333Y-30905952D01*
X104985714Y-30858333D01*
X104938095Y-30763095D01*
X104938095Y-30667857D01*
X104985714Y-30572619D01*
X105033333Y-30525000D01*
X105128571Y-30477380D01*
X105366666Y-30477380D01*
X105509523Y-30525000D01*
X106271428Y-30953571D02*
X106414285Y-31001190D01*
X106461904Y-31048809D01*
X106509523Y-31144047D01*
X106509523Y-31286904D01*
X106461904Y-31382142D01*
X106414285Y-31429761D01*
X106319047Y-31477380D01*
X105938095Y-31477380D01*
X105938095Y-30477380D01*
X106271428Y-30477380D01*
X106366666Y-30525000D01*
X106414285Y-30572619D01*
X106461904Y-30667857D01*
X106461904Y-30763095D01*
X106414285Y-30858333D01*
X106366666Y-30905952D01*
X106271428Y-30953571D01*
X105938095Y-30953571D01*
X103866666Y-33127380D02*
X103866666Y-32127380D01*
X104247619Y-32127380D01*
X104342857Y-32175000D01*
X104390476Y-32222619D01*
X104438095Y-32317857D01*
X104438095Y-32460714D01*
X104390476Y-32555952D01*
X104342857Y-32603571D01*
X104247619Y-32651190D01*
X103866666Y-32651190D01*
X104771428Y-32127380D02*
X105009523Y-33127380D01*
X105200000Y-32413095D01*
X105390476Y-33127380D01*
X105628571Y-32127380D01*
X106580952Y-33127380D02*
X106247619Y-32651190D01*
X106009523Y-33127380D02*
X106009523Y-32127380D01*
X106390476Y-32127380D01*
X106485714Y-32175000D01*
X106533333Y-32222619D01*
X106580952Y-32317857D01*
X106580952Y-32460714D01*
X106533333Y-32555952D01*
X106485714Y-32603571D01*
X106390476Y-32651190D01*
X106009523Y-32651190D01*
D11*
X114488095Y-16892857D02*
X116011904Y-16892857D01*
X115630952Y-17273809D02*
X116011904Y-16892857D01*
X115630952Y-16511904D01*
D10*
X35916666Y-19702380D02*
X35583333Y-19226190D01*
X35345238Y-19702380D02*
X35345238Y-18702380D01*
X35726190Y-18702380D01*
X35821428Y-18750000D01*
X35869047Y-18797619D01*
X35916666Y-18892857D01*
X35916666Y-19035714D01*
X35869047Y-19130952D01*
X35821428Y-19178571D01*
X35726190Y-19226190D01*
X35345238Y-19226190D01*
X36726190Y-19654761D02*
X36630952Y-19702380D01*
X36440476Y-19702380D01*
X36345238Y-19654761D01*
X36297619Y-19559523D01*
X36297619Y-19178571D01*
X36345238Y-19083333D01*
X36440476Y-19035714D01*
X36630952Y-19035714D01*
X36726190Y-19083333D01*
X36773809Y-19178571D01*
X36773809Y-19273809D01*
X36297619Y-19369047D01*
X37107142Y-19035714D02*
X37345238Y-19702380D01*
X37583333Y-19035714D01*
X37964285Y-19607142D02*
X38011904Y-19654761D01*
X37964285Y-19702380D01*
X37916666Y-19654761D01*
X37964285Y-19607142D01*
X37964285Y-19702380D01*
X39154761Y-19416666D02*
X39630952Y-19416666D01*
X39059523Y-19702380D02*
X39392857Y-18702380D01*
X39726190Y-19702380D01*
X40773809Y-18797619D02*
X40821428Y-18750000D01*
X40916666Y-18702380D01*
X41154761Y-18702380D01*
X41250000Y-18750000D01*
X41297619Y-18797619D01*
X41345238Y-18892857D01*
X41345238Y-18988095D01*
X41297619Y-19130952D01*
X40726190Y-19702380D01*
X41345238Y-19702380D01*
X41964285Y-18702380D02*
X42059523Y-18702380D01*
X42154761Y-18750000D01*
X42202380Y-18797619D01*
X42250000Y-18892857D01*
X42297619Y-19083333D01*
X42297619Y-19321428D01*
X42250000Y-19511904D01*
X42202380Y-19607142D01*
X42154761Y-19654761D01*
X42059523Y-19702380D01*
X41964285Y-19702380D01*
X41869047Y-19654761D01*
X41821428Y-19607142D01*
X41773809Y-19511904D01*
X41726190Y-19321428D01*
X41726190Y-19083333D01*
X41773809Y-18892857D01*
X41821428Y-18797619D01*
X41869047Y-18750000D01*
X41964285Y-18702380D01*
X42678571Y-18797619D02*
X42726190Y-18750000D01*
X42821428Y-18702380D01*
X43059523Y-18702380D01*
X43154761Y-18750000D01*
X43202380Y-18797619D01*
X43250000Y-18892857D01*
X43250000Y-18988095D01*
X43202380Y-19130952D01*
X42630952Y-19702380D01*
X43250000Y-19702380D01*
X43869047Y-18702380D02*
X43964285Y-18702380D01*
X44059523Y-18750000D01*
X44107142Y-18797619D01*
X44154761Y-18892857D01*
X44202380Y-19083333D01*
X44202380Y-19321428D01*
X44154761Y-19511904D01*
X44107142Y-19607142D01*
X44059523Y-19654761D01*
X43964285Y-19702380D01*
X43869047Y-19702380D01*
X43773809Y-19654761D01*
X43726190Y-19607142D01*
X43678571Y-19511904D01*
X43630952Y-19321428D01*
X43630952Y-19083333D01*
X43678571Y-18892857D01*
X43726190Y-18797619D01*
X43773809Y-18750000D01*
X43869047Y-18702380D01*
D11*
X88821428Y-74104761D02*
X88821428Y-72104761D01*
X89297619Y-72104761D01*
X89583333Y-72200000D01*
X89773809Y-72390476D01*
X89869047Y-72580952D01*
X89964285Y-72961904D01*
X89964285Y-73247619D01*
X89869047Y-73628571D01*
X89773809Y-73819047D01*
X89583333Y-74009523D01*
X89297619Y-74104761D01*
X88821428Y-74104761D01*
X91583333Y-74009523D02*
X91392857Y-74104761D01*
X91011904Y-74104761D01*
X90821428Y-74009523D01*
X90726190Y-73819047D01*
X90726190Y-73057142D01*
X90821428Y-72866666D01*
X91011904Y-72771428D01*
X91392857Y-72771428D01*
X91583333Y-72866666D01*
X91678571Y-73057142D01*
X91678571Y-73247619D01*
X90726190Y-73438095D01*
X92440476Y-74009523D02*
X92630952Y-74104761D01*
X93011904Y-74104761D01*
X93202380Y-74009523D01*
X93297619Y-73819047D01*
X93297619Y-73723809D01*
X93202380Y-73533333D01*
X93011904Y-73438095D01*
X92726190Y-73438095D01*
X92535714Y-73342857D01*
X92440476Y-73152380D01*
X92440476Y-73057142D01*
X92535714Y-72866666D01*
X92726190Y-72771428D01*
X93011904Y-72771428D01*
X93202380Y-72866666D01*
X94154761Y-74104761D02*
X94154761Y-72771428D01*
X94154761Y-72104761D02*
X94059523Y-72200000D01*
X94154761Y-72295238D01*
X94250000Y-72200000D01*
X94154761Y-72104761D01*
X94154761Y-72295238D01*
X95964285Y-72771428D02*
X95964285Y-74390476D01*
X95869047Y-74580952D01*
X95773809Y-74676190D01*
X95583333Y-74771428D01*
X95297619Y-74771428D01*
X95107142Y-74676190D01*
X95964285Y-74009523D02*
X95773809Y-74104761D01*
X95392857Y-74104761D01*
X95202380Y-74009523D01*
X95107142Y-73914285D01*
X95011904Y-73723809D01*
X95011904Y-73152380D01*
X95107142Y-72961904D01*
X95202380Y-72866666D01*
X95392857Y-72771428D01*
X95773809Y-72771428D01*
X95964285Y-72866666D01*
X96916666Y-72771428D02*
X96916666Y-74104761D01*
X96916666Y-72961904D02*
X97011904Y-72866666D01*
X97202380Y-72771428D01*
X97488095Y-72771428D01*
X97678571Y-72866666D01*
X97773809Y-73057142D01*
X97773809Y-74104761D01*
X99488095Y-74009523D02*
X99297619Y-74104761D01*
X98916666Y-74104761D01*
X98726190Y-74009523D01*
X98630952Y-73819047D01*
X98630952Y-73057142D01*
X98726190Y-72866666D01*
X98916666Y-72771428D01*
X99297619Y-72771428D01*
X99488095Y-72866666D01*
X99583333Y-73057142D01*
X99583333Y-73247619D01*
X98630952Y-73438095D01*
X101297619Y-74104761D02*
X101297619Y-72104761D01*
X101297619Y-74009523D02*
X101107142Y-74104761D01*
X100726190Y-74104761D01*
X100535714Y-74009523D01*
X100440476Y-73914285D01*
X100345238Y-73723809D01*
X100345238Y-73152380D01*
X100440476Y-72961904D01*
X100535714Y-72866666D01*
X100726190Y-72771428D01*
X101107142Y-72771428D01*
X101297619Y-72866666D01*
X103773809Y-74104761D02*
X103773809Y-72104761D01*
X103773809Y-72866666D02*
X103964285Y-72771428D01*
X104345238Y-72771428D01*
X104535714Y-72866666D01*
X104630952Y-72961904D01*
X104726190Y-73152380D01*
X104726190Y-73723809D01*
X104630952Y-73914285D01*
X104535714Y-74009523D01*
X104345238Y-74104761D01*
X103964285Y-74104761D01*
X103773809Y-74009523D01*
X105392857Y-72771428D02*
X105869047Y-74104761D01*
X106345238Y-72771428D02*
X105869047Y-74104761D01*
X105678571Y-74580952D01*
X105583333Y-74676190D01*
X105392857Y-74771428D01*
X86011904Y-75404761D02*
X87154761Y-75404761D01*
X86583333Y-77404761D02*
X86583333Y-75404761D01*
X88107142Y-77404761D02*
X87916666Y-77309523D01*
X87821428Y-77214285D01*
X87726190Y-77023809D01*
X87726190Y-76452380D01*
X87821428Y-76261904D01*
X87916666Y-76166666D01*
X88107142Y-76071428D01*
X88392857Y-76071428D01*
X88583333Y-76166666D01*
X88678571Y-76261904D01*
X88773809Y-76452380D01*
X88773809Y-77023809D01*
X88678571Y-77214285D01*
X88583333Y-77309523D01*
X88392857Y-77404761D01*
X88107142Y-77404761D01*
X89630952Y-77404761D02*
X89630952Y-75404761D01*
X89630952Y-76166666D02*
X89821428Y-76071428D01*
X90202380Y-76071428D01*
X90392857Y-76166666D01*
X90488095Y-76261904D01*
X90583333Y-76452380D01*
X90583333Y-77023809D01*
X90488095Y-77214285D01*
X90392857Y-77309523D01*
X90202380Y-77404761D01*
X89821428Y-77404761D01*
X89630952Y-77309523D01*
X91440476Y-77404761D02*
X91440476Y-76071428D01*
X91440476Y-75404761D02*
X91345238Y-75500000D01*
X91440476Y-75595238D01*
X91535714Y-75500000D01*
X91440476Y-75404761D01*
X91440476Y-75595238D01*
X93250000Y-77404761D02*
X93250000Y-76357142D01*
X93154761Y-76166666D01*
X92964285Y-76071428D01*
X92583333Y-76071428D01*
X92392857Y-76166666D01*
X93250000Y-77309523D02*
X93059523Y-77404761D01*
X92583333Y-77404761D01*
X92392857Y-77309523D01*
X92297619Y-77119047D01*
X92297619Y-76928571D01*
X92392857Y-76738095D01*
X92583333Y-76642857D01*
X93059523Y-76642857D01*
X93250000Y-76547619D01*
X94107142Y-77309523D02*
X94297619Y-77404761D01*
X94678571Y-77404761D01*
X94869047Y-77309523D01*
X94964285Y-77119047D01*
X94964285Y-77023809D01*
X94869047Y-76833333D01*
X94678571Y-76738095D01*
X94392857Y-76738095D01*
X94202380Y-76642857D01*
X94107142Y-76452380D01*
X94107142Y-76357142D01*
X94202380Y-76166666D01*
X94392857Y-76071428D01*
X94678571Y-76071428D01*
X94869047Y-76166666D01*
X97250000Y-77309523D02*
X97535714Y-77404761D01*
X98011904Y-77404761D01*
X98202380Y-77309523D01*
X98297619Y-77214285D01*
X98392857Y-77023809D01*
X98392857Y-76833333D01*
X98297619Y-76642857D01*
X98202380Y-76547619D01*
X98011904Y-76452380D01*
X97630952Y-76357142D01*
X97440476Y-76261904D01*
X97345238Y-76166666D01*
X97250000Y-75976190D01*
X97250000Y-75785714D01*
X97345238Y-75595238D01*
X97440476Y-75500000D01*
X97630952Y-75404761D01*
X98107142Y-75404761D01*
X98392857Y-75500000D01*
X100107142Y-77309523D02*
X99916666Y-77404761D01*
X99535714Y-77404761D01*
X99345238Y-77309523D01*
X99250000Y-77214285D01*
X99154761Y-77023809D01*
X99154761Y-76452380D01*
X99250000Y-76261904D01*
X99345238Y-76166666D01*
X99535714Y-76071428D01*
X99916666Y-76071428D01*
X100107142Y-76166666D01*
X100964285Y-77404761D02*
X100964285Y-75404761D01*
X101821428Y-77404761D02*
X101821428Y-76357142D01*
X101726190Y-76166666D01*
X101535714Y-76071428D01*
X101250000Y-76071428D01*
X101059523Y-76166666D01*
X100964285Y-76261904D01*
X102773809Y-77404761D02*
X102773809Y-76071428D01*
X102773809Y-76452380D02*
X102869047Y-76261904D01*
X102964285Y-76166666D01*
X103154761Y-76071428D01*
X103345238Y-76071428D01*
X104869047Y-77404761D02*
X104869047Y-76357142D01*
X104773809Y-76166666D01*
X104583333Y-76071428D01*
X104202380Y-76071428D01*
X104011904Y-76166666D01*
X104869047Y-77309523D02*
X104678571Y-77404761D01*
X104202380Y-77404761D01*
X104011904Y-77309523D01*
X103916666Y-77119047D01*
X103916666Y-76928571D01*
X104011904Y-76738095D01*
X104202380Y-76642857D01*
X104678571Y-76642857D01*
X104869047Y-76547619D01*
X105821428Y-77404761D02*
X105821428Y-76071428D01*
X105821428Y-76261904D02*
X105916666Y-76166666D01*
X106107142Y-76071428D01*
X106392857Y-76071428D01*
X106583333Y-76166666D01*
X106678571Y-76357142D01*
X106678571Y-77404761D01*
X106678571Y-76357142D02*
X106773809Y-76166666D01*
X106964285Y-76071428D01*
X107250000Y-76071428D01*
X107440476Y-76166666D01*
X107535714Y-76357142D01*
X107535714Y-77404761D01*
X108488095Y-77404761D02*
X108488095Y-76071428D01*
X108488095Y-76261904D02*
X108583333Y-76166666D01*
X108773809Y-76071428D01*
X109059523Y-76071428D01*
X109250000Y-76166666D01*
X109345238Y-76357142D01*
X109345238Y-77404761D01*
X109345238Y-76357142D02*
X109440476Y-76166666D01*
X109630952Y-76071428D01*
X109916666Y-76071428D01*
X110107142Y-76166666D01*
X110202380Y-76357142D01*
X110202380Y-77404761D01*
X88583333Y-78704761D02*
X89726190Y-78704761D01*
X89154761Y-80704761D02*
X89154761Y-78704761D01*
X90678571Y-80704761D02*
X90488095Y-80609523D01*
X90392857Y-80514285D01*
X90297619Y-80323809D01*
X90297619Y-79752380D01*
X90392857Y-79561904D01*
X90488095Y-79466666D01*
X90678571Y-79371428D01*
X90964285Y-79371428D01*
X91154761Y-79466666D01*
X91249999Y-79561904D01*
X91345238Y-79752380D01*
X91345238Y-80323809D01*
X91249999Y-80514285D01*
X91154761Y-80609523D01*
X90964285Y-80704761D01*
X90678571Y-80704761D01*
X92202380Y-80704761D02*
X92202380Y-78704761D01*
X92202380Y-79466666D02*
X92392857Y-79371428D01*
X92773809Y-79371428D01*
X92964285Y-79466666D01*
X93059523Y-79561904D01*
X93154761Y-79752380D01*
X93154761Y-80323809D01*
X93059523Y-80514285D01*
X92964285Y-80609523D01*
X92773809Y-80704761D01*
X92392857Y-80704761D01*
X92202380Y-80609523D01*
X94011904Y-80704761D02*
X94011904Y-79371428D01*
X94011904Y-78704761D02*
X93916666Y-78800000D01*
X94011904Y-78895238D01*
X94107142Y-78800000D01*
X94011904Y-78704761D01*
X94011904Y-78895238D01*
X95821428Y-80704761D02*
X95821428Y-79657142D01*
X95726190Y-79466666D01*
X95535714Y-79371428D01*
X95154761Y-79371428D01*
X94964285Y-79466666D01*
X95821428Y-80609523D02*
X95630952Y-80704761D01*
X95154761Y-80704761D01*
X94964285Y-80609523D01*
X94869047Y-80419047D01*
X94869047Y-80228571D01*
X94964285Y-80038095D01*
X95154761Y-79942857D01*
X95630952Y-79942857D01*
X95821428Y-79847619D01*
X96678571Y-80609523D02*
X96869047Y-80704761D01*
X97249999Y-80704761D01*
X97440476Y-80609523D01*
X97535714Y-80419047D01*
X97535714Y-80323809D01*
X97440476Y-80133333D01*
X97249999Y-80038095D01*
X96964285Y-80038095D01*
X96773809Y-79942857D01*
X96678571Y-79752380D01*
X96678571Y-79657142D01*
X96773809Y-79466666D01*
X96964285Y-79371428D01*
X97249999Y-79371428D01*
X97440476Y-79466666D01*
X99916666Y-80704761D02*
X99916666Y-78704761D01*
X100583333Y-80133333D01*
X101249999Y-78704761D01*
X101249999Y-80704761D01*
X103059523Y-80704761D02*
X103059523Y-79657142D01*
X102964285Y-79466666D01*
X102773809Y-79371428D01*
X102392857Y-79371428D01*
X102202380Y-79466666D01*
X103059523Y-80609523D02*
X102869047Y-80704761D01*
X102392857Y-80704761D01*
X102202380Y-80609523D01*
X102107142Y-80419047D01*
X102107142Y-80228571D01*
X102202380Y-80038095D01*
X102392857Y-79942857D01*
X102869047Y-79942857D01*
X103059523Y-79847619D01*
X102202380Y-78704761D02*
X102297619Y-78800000D01*
X102202380Y-78895238D01*
X102107142Y-78800000D01*
X102202380Y-78704761D01*
X102202380Y-78895238D01*
X102964285Y-78704761D02*
X103059523Y-78800000D01*
X102964285Y-78895238D01*
X102869047Y-78800000D01*
X102964285Y-78704761D01*
X102964285Y-78895238D01*
X104869047Y-80704761D02*
X104869047Y-78704761D01*
X104869047Y-80609523D02*
X104678571Y-80704761D01*
X104297619Y-80704761D01*
X104107142Y-80609523D01*
X104011904Y-80514285D01*
X103916666Y-80323809D01*
X103916666Y-79752380D01*
X104011904Y-79561904D01*
X104107142Y-79466666D01*
X104297619Y-79371428D01*
X104678571Y-79371428D01*
X104869047Y-79466666D01*
X106583333Y-80609523D02*
X106392857Y-80704761D01*
X106011904Y-80704761D01*
X105821428Y-80609523D01*
X105726190Y-80419047D01*
X105726190Y-79657142D01*
X105821428Y-79466666D01*
X106011904Y-79371428D01*
X106392857Y-79371428D01*
X106583333Y-79466666D01*
X106678571Y-79657142D01*
X106678571Y-79847619D01*
X105726190Y-80038095D01*
X107821428Y-80704761D02*
X107630952Y-80609523D01*
X107535714Y-80419047D01*
X107535714Y-78704761D01*
D12*
X19700000Y-19707142D02*
X19700000Y-16707142D01*
X20985714Y-19564285D02*
X21414285Y-19707142D01*
X22128571Y-19707142D01*
X22414285Y-19564285D01*
X22557142Y-19421428D01*
X22700000Y-19135714D01*
X22700000Y-18850000D01*
X22557142Y-18564285D01*
X22414285Y-18421428D01*
X22128571Y-18278571D01*
X21557142Y-18135714D01*
X21271428Y-17992857D01*
X21128571Y-17850000D01*
X20985714Y-17564285D01*
X20985714Y-17278571D01*
X21128571Y-16992857D01*
X21271428Y-16850000D01*
X21557142Y-16707142D01*
X22271428Y-16707142D01*
X22700000Y-16850000D01*
X23842857Y-18850000D02*
X25271428Y-18850000D01*
X23557142Y-19707142D02*
X24557142Y-16707142D01*
X25557142Y-19707142D01*
X26414285Y-19564285D02*
X26842857Y-19707142D01*
X27557142Y-19707142D01*
X27842857Y-19564285D01*
X27985714Y-19421428D01*
X28128571Y-19135714D01*
X28128571Y-18850000D01*
X27985714Y-18564285D01*
X27842857Y-18421428D01*
X27557142Y-18278571D01*
X26985714Y-18135714D01*
X26700000Y-17992857D01*
X26557142Y-17850000D01*
X26414285Y-17564285D01*
X26414285Y-17278571D01*
X26557142Y-16992857D01*
X26700000Y-16850000D01*
X26985714Y-16707142D01*
X27700000Y-16707142D01*
X28128571Y-16850000D01*
X28985714Y-16707142D02*
X30700000Y-16707142D01*
X29842857Y-19707142D02*
X29842857Y-16707142D01*
X31700000Y-19707142D02*
X31700000Y-16707142D01*
X32700000Y-18850000D01*
X33700000Y-16707142D01*
X33700000Y-19707142D01*
D10*
X111585714Y-54971428D02*
X112347619Y-54971428D01*
X111966666Y-55352380D02*
X111966666Y-54590476D01*
X112728571Y-54352380D02*
X113347619Y-54352380D01*
X113014285Y-54733333D01*
X113157142Y-54733333D01*
X113252380Y-54780952D01*
X113300000Y-54828571D01*
X113347619Y-54923809D01*
X113347619Y-55161904D01*
X113300000Y-55257142D01*
X113252380Y-55304761D01*
X113157142Y-55352380D01*
X112871428Y-55352380D01*
X112776190Y-55304761D01*
X112728571Y-55257142D01*
X113680952Y-54685714D02*
X113919047Y-55352380D01*
X114157142Y-54685714D01*
X114442857Y-54352380D02*
X115061904Y-54352380D01*
X114728571Y-54733333D01*
X114871428Y-54733333D01*
X114966666Y-54780952D01*
X115014285Y-54828571D01*
X115061904Y-54923809D01*
X115061904Y-55161904D01*
X115014285Y-55257142D01*
X114966666Y-55304761D01*
X114871428Y-55352380D01*
X114585714Y-55352380D01*
X114490476Y-55304761D01*
X114442857Y-55257142D01*
X101557142Y-40852380D02*
X101557142Y-41661904D01*
X101604761Y-41757142D01*
X101652380Y-41804761D01*
X101747619Y-41852380D01*
X101938095Y-41852380D01*
X102033333Y-41804761D01*
X102080952Y-41757142D01*
X102128571Y-41661904D01*
X102128571Y-40852380D01*
X102557142Y-41804761D02*
X102700000Y-41852380D01*
X102938095Y-41852380D01*
X103033333Y-41804761D01*
X103080952Y-41757142D01*
X103128571Y-41661904D01*
X103128571Y-41566666D01*
X103080952Y-41471428D01*
X103033333Y-41423809D01*
X102938095Y-41376190D01*
X102747619Y-41328571D01*
X102652380Y-41280952D01*
X102604761Y-41233333D01*
X102557142Y-41138095D01*
X102557142Y-41042857D01*
X102604761Y-40947619D01*
X102652380Y-40900000D01*
X102747619Y-40852380D01*
X102985714Y-40852380D01*
X103128571Y-40900000D01*
X103890476Y-41328571D02*
X104033333Y-41376190D01*
X104080952Y-41423809D01*
X104128571Y-41519047D01*
X104128571Y-41661904D01*
X104080952Y-41757142D01*
X104033333Y-41804761D01*
X103938095Y-41852380D01*
X103557142Y-41852380D01*
X103557142Y-40852380D01*
X103890476Y-40852380D01*
X103985714Y-40900000D01*
X104033333Y-40947619D01*
X104080952Y-41042857D01*
X104080952Y-41138095D01*
X104033333Y-41233333D01*
X103985714Y-41280952D01*
X103890476Y-41328571D01*
X103557142Y-41328571D01*
X105319047Y-41852380D02*
X105319047Y-40852380D01*
X105319047Y-41328571D02*
X105890476Y-41328571D01*
X105890476Y-41852380D02*
X105890476Y-40852380D01*
X106319047Y-41804761D02*
X106461904Y-41852380D01*
X106700000Y-41852380D01*
X106795238Y-41804761D01*
X106842857Y-41757142D01*
X106890476Y-41661904D01*
X106890476Y-41566666D01*
X106842857Y-41471428D01*
X106795238Y-41423809D01*
X106700000Y-41376190D01*
X106509523Y-41328571D01*
X106414285Y-41280952D01*
X106366666Y-41233333D01*
X106319047Y-41138095D01*
X106319047Y-41042857D01*
X106366666Y-40947619D01*
X106414285Y-40900000D01*
X106509523Y-40852380D01*
X106747619Y-40852380D01*
X106890476Y-40900000D01*
X98476190Y-23752380D02*
X98476190Y-22752380D01*
X98714285Y-22752380D01*
X98857142Y-22800000D01*
X98952380Y-22895238D01*
X99000000Y-22990476D01*
X99047619Y-23180952D01*
X99047619Y-23323809D01*
X99000000Y-23514285D01*
X98952380Y-23609523D01*
X98857142Y-23704761D01*
X98714285Y-23752380D01*
X98476190Y-23752380D01*
X99809523Y-23228571D02*
X99476190Y-23228571D01*
X99476190Y-23752380D02*
X99476190Y-22752380D01*
X99952380Y-22752380D01*
X100333333Y-22752380D02*
X100333333Y-23561904D01*
X100380952Y-23657142D01*
X100428571Y-23704761D01*
X100523809Y-23752380D01*
X100714285Y-23752380D01*
X100809523Y-23704761D01*
X100857142Y-23657142D01*
X100904761Y-23561904D01*
X100904761Y-22752380D01*
X102095238Y-22704761D02*
X101238095Y-23990476D01*
X102428571Y-22752380D02*
X102428571Y-23561904D01*
X102476190Y-23657142D01*
X102523809Y-23704761D01*
X102619047Y-23752380D01*
X102809523Y-23752380D01*
X102904761Y-23704761D01*
X102952380Y-23657142D01*
X103000000Y-23561904D01*
X103000000Y-22752380D01*
X103428571Y-23704761D02*
X103571428Y-23752380D01*
X103809523Y-23752380D01*
X103904761Y-23704761D01*
X103952380Y-23657142D01*
X104000000Y-23561904D01*
X104000000Y-23466666D01*
X103952380Y-23371428D01*
X103904761Y-23323809D01*
X103809523Y-23276190D01*
X103619047Y-23228571D01*
X103523809Y-23180952D01*
X103476190Y-23133333D01*
X103428571Y-23038095D01*
X103428571Y-22942857D01*
X103476190Y-22847619D01*
X103523809Y-22800000D01*
X103619047Y-22752380D01*
X103857142Y-22752380D01*
X104000000Y-22800000D01*
X104761904Y-23228571D02*
X104904761Y-23276190D01*
X104952380Y-23323809D01*
X105000000Y-23419047D01*
X105000000Y-23561904D01*
X104952380Y-23657142D01*
X104904761Y-23704761D01*
X104809523Y-23752380D01*
X104428571Y-23752380D01*
X104428571Y-22752380D01*
X104761904Y-22752380D01*
X104857142Y-22800000D01*
X104904761Y-22847619D01*
X104952380Y-22942857D01*
X104952380Y-23038095D01*
X104904761Y-23133333D01*
X104857142Y-23180952D01*
X104761904Y-23228571D01*
X104428571Y-23228571D01*
X106523809Y-23228571D02*
X106190476Y-23228571D01*
X106190476Y-23752380D02*
X106190476Y-22752380D01*
X106666666Y-22752380D01*
X107000000Y-23704761D02*
X107142857Y-23752380D01*
X107380952Y-23752380D01*
X107476190Y-23704761D01*
X107523809Y-23657142D01*
X107571428Y-23561904D01*
X107571428Y-23466666D01*
X107523809Y-23371428D01*
X107476190Y-23323809D01*
X107380952Y-23276190D01*
X107190476Y-23228571D01*
X107095238Y-23180952D01*
X107047619Y-23133333D01*
X107000000Y-23038095D01*
X107000000Y-22942857D01*
X107047619Y-22847619D01*
X107095238Y-22800000D01*
X107190476Y-22752380D01*
X107428571Y-22752380D01*
X107571428Y-22800000D01*
X100647619Y-21852380D02*
X100314285Y-21376190D01*
X100076190Y-21852380D02*
X100076190Y-20852380D01*
X100457142Y-20852380D01*
X100552380Y-20900000D01*
X100600000Y-20947619D01*
X100647619Y-21042857D01*
X100647619Y-21185714D01*
X100600000Y-21280952D01*
X100552380Y-21328571D01*
X100457142Y-21376190D01*
X100076190Y-21376190D01*
X101076190Y-21328571D02*
X101409523Y-21328571D01*
X101552380Y-21852380D02*
X101076190Y-21852380D01*
X101076190Y-20852380D01*
X101552380Y-20852380D01*
X101933333Y-21804761D02*
X102076190Y-21852380D01*
X102314285Y-21852380D01*
X102409523Y-21804761D01*
X102457142Y-21757142D01*
X102504761Y-21661904D01*
X102504761Y-21566666D01*
X102457142Y-21471428D01*
X102409523Y-21423809D01*
X102314285Y-21376190D01*
X102123809Y-21328571D01*
X102028571Y-21280952D01*
X101980952Y-21233333D01*
X101933333Y-21138095D01*
X101933333Y-21042857D01*
X101980952Y-20947619D01*
X102028571Y-20900000D01*
X102123809Y-20852380D01*
X102361904Y-20852380D01*
X102504761Y-20900000D01*
X102933333Y-21328571D02*
X103266666Y-21328571D01*
X103409523Y-21852380D02*
X102933333Y-21852380D01*
X102933333Y-20852380D01*
X103409523Y-20852380D01*
X103695238Y-20852380D02*
X104266666Y-20852380D01*
X103980952Y-21852380D02*
X103980952Y-20852380D01*
X89742857Y-21804761D02*
X89885714Y-21852380D01*
X90123809Y-21852380D01*
X90219047Y-21804761D01*
X90266666Y-21757142D01*
X90314285Y-21661904D01*
X90314285Y-21566666D01*
X90266666Y-21471428D01*
X90219047Y-21423809D01*
X90123809Y-21376190D01*
X89933333Y-21328571D01*
X89838095Y-21280952D01*
X89790476Y-21233333D01*
X89742857Y-21138095D01*
X89742857Y-21042857D01*
X89790476Y-20947619D01*
X89838095Y-20900000D01*
X89933333Y-20852380D01*
X90171428Y-20852380D01*
X90314285Y-20900000D01*
X90647619Y-20852380D02*
X90885714Y-21852380D01*
X91076190Y-21138095D01*
X91266666Y-21852380D01*
X91504761Y-20852380D01*
X91885714Y-21852380D02*
X91885714Y-20852380D01*
X92123809Y-20852380D01*
X92266666Y-20900000D01*
X92361904Y-20995238D01*
X92409523Y-21090476D01*
X92457142Y-21280952D01*
X92457142Y-21423809D01*
X92409523Y-21614285D01*
X92361904Y-21709523D01*
X92266666Y-21804761D01*
X92123809Y-21852380D01*
X91885714Y-21852380D01*
X82447619Y-19235595D02*
X83447619Y-19235595D01*
X82447619Y-19807023D01*
X83447619Y-19807023D01*
X83447619Y-20473690D02*
X83447619Y-20664166D01*
X83400000Y-20759404D01*
X83304761Y-20854642D01*
X83114285Y-20902261D01*
X82780952Y-20902261D01*
X82590476Y-20854642D01*
X82495238Y-20759404D01*
X82447619Y-20664166D01*
X82447619Y-20473690D01*
X82495238Y-20378452D01*
X82590476Y-20283214D01*
X82780952Y-20235595D01*
X83114285Y-20235595D01*
X83304761Y-20283214D01*
X83400000Y-20378452D01*
X83447619Y-20473690D01*
X82447619Y-21902261D02*
X82923809Y-21568928D01*
X82447619Y-21330833D02*
X83447619Y-21330833D01*
X83447619Y-21711785D01*
X83400000Y-21807023D01*
X83352380Y-21854642D01*
X83257142Y-21902261D01*
X83114285Y-21902261D01*
X83019047Y-21854642D01*
X82971428Y-21807023D01*
X82923809Y-21711785D01*
X82923809Y-21330833D01*
X82447619Y-22330833D02*
X83447619Y-22330833D01*
X82733333Y-22664166D01*
X83447619Y-22997500D01*
X82447619Y-22997500D01*
X82733333Y-23426071D02*
X82733333Y-23902261D01*
X82447619Y-23330833D02*
X83447619Y-23664166D01*
X82447619Y-23997500D01*
X82447619Y-24807023D02*
X82447619Y-24330833D01*
X83447619Y-24330833D01*
X77347619Y-19235595D02*
X78347619Y-19235595D01*
X78347619Y-19473690D01*
X78300000Y-19616547D01*
X78204761Y-19711785D01*
X78109523Y-19759404D01*
X77919047Y-19807023D01*
X77776190Y-19807023D01*
X77585714Y-19759404D01*
X77490476Y-19711785D01*
X77395238Y-19616547D01*
X77347619Y-19473690D01*
X77347619Y-19235595D01*
X77871428Y-20568928D02*
X77871428Y-20235595D01*
X77347619Y-20235595D02*
X78347619Y-20235595D01*
X78347619Y-20711785D01*
X78347619Y-21092738D02*
X77538095Y-21092738D01*
X77442857Y-21140357D01*
X77395238Y-21187976D01*
X77347619Y-21283214D01*
X77347619Y-21473690D01*
X77395238Y-21568928D01*
X77442857Y-21616547D01*
X77538095Y-21664166D01*
X78347619Y-21664166D01*
X38266666Y-107032023D02*
X38266666Y-106555833D01*
X38552380Y-107127261D02*
X37552380Y-106793928D01*
X38552380Y-106460595D01*
X37552380Y-105936785D02*
X37552380Y-105841547D01*
X37600000Y-105746309D01*
X37647619Y-105698690D01*
X37742857Y-105651071D01*
X37933333Y-105603452D01*
X38171428Y-105603452D01*
X38361904Y-105651071D01*
X38457142Y-105698690D01*
X38504761Y-105746309D01*
X38552380Y-105841547D01*
X38552380Y-105936785D01*
X38504761Y-106032023D01*
X38457142Y-106079642D01*
X38361904Y-106127261D01*
X38171428Y-106174880D01*
X37933333Y-106174880D01*
X37742857Y-106127261D01*
X37647619Y-106079642D01*
X37600000Y-106032023D01*
X37552380Y-105936785D01*
X113385000Y-107222500D02*
X113385000Y-106746309D01*
X114752380Y-106984404D02*
X113752380Y-106984404D01*
X113385000Y-106746309D02*
X113385000Y-105698690D01*
X113752380Y-106317738D02*
X113752380Y-106127261D01*
X113800000Y-106032023D01*
X113895238Y-105936785D01*
X114085714Y-105889166D01*
X114419047Y-105889166D01*
X114609523Y-105936785D01*
X114704761Y-106032023D01*
X114752380Y-106127261D01*
X114752380Y-106317738D01*
X114704761Y-106412976D01*
X114609523Y-106508214D01*
X114419047Y-106555833D01*
X114085714Y-106555833D01*
X113895238Y-106508214D01*
X113800000Y-106412976D01*
X113752380Y-106317738D01*
X113385000Y-105698690D02*
X113385000Y-104936785D01*
X114847619Y-105698690D02*
X114847619Y-104936785D01*
X113385000Y-104936785D02*
X113385000Y-103936785D01*
X114657142Y-104127261D02*
X114704761Y-104174880D01*
X114752380Y-104317738D01*
X114752380Y-104412976D01*
X114704761Y-104555833D01*
X114609523Y-104651071D01*
X114514285Y-104698690D01*
X114323809Y-104746309D01*
X114180952Y-104746309D01*
X113990476Y-104698690D01*
X113895238Y-104651071D01*
X113800000Y-104555833D01*
X113752380Y-104412976D01*
X113752380Y-104317738D01*
X113800000Y-104174880D01*
X113847619Y-104127261D01*
X113385000Y-103936785D02*
X113385000Y-102889166D01*
X114752380Y-103698690D02*
X113752380Y-103698690D01*
X114228571Y-103698690D02*
X114228571Y-103127261D01*
X114752380Y-103127261D02*
X113752380Y-103127261D01*
X113385000Y-102889166D02*
X113385000Y-102127261D01*
X114847619Y-102889166D02*
X114847619Y-102127261D01*
X113385000Y-102127261D02*
X113385000Y-101127261D01*
X114657142Y-101317738D02*
X114704761Y-101365357D01*
X114752380Y-101508214D01*
X114752380Y-101603452D01*
X114704761Y-101746309D01*
X114609523Y-101841547D01*
X114514285Y-101889166D01*
X114323809Y-101936785D01*
X114180952Y-101936785D01*
X113990476Y-101889166D01*
X113895238Y-101841547D01*
X113800000Y-101746309D01*
X113752380Y-101603452D01*
X113752380Y-101508214D01*
X113800000Y-101365357D01*
X113847619Y-101317738D01*
X113385000Y-101127261D02*
X113385000Y-100127261D01*
X114752380Y-100889166D02*
X113752380Y-100889166D01*
X114752380Y-100317738D02*
X114180952Y-100746309D01*
X113752380Y-100317738D02*
X114323809Y-100889166D01*
X112212380Y-106984404D02*
X111212380Y-106984404D01*
X111212380Y-106746309D01*
X111260000Y-106603452D01*
X111355238Y-106508214D01*
X111450476Y-106460595D01*
X111640952Y-106412976D01*
X111783809Y-106412976D01*
X111974285Y-106460595D01*
X112069523Y-106508214D01*
X112164761Y-106603452D01*
X112212380Y-106746309D01*
X112212380Y-106984404D01*
X111212380Y-106079642D02*
X111212380Y-105412976D01*
X112212380Y-105841547D01*
X109672380Y-106984404D02*
X108672380Y-106984404D01*
X108672380Y-106746309D01*
X108720000Y-106603452D01*
X108815238Y-106508214D01*
X108910476Y-106460595D01*
X109100952Y-106412976D01*
X109243809Y-106412976D01*
X109434285Y-106460595D01*
X109529523Y-106508214D01*
X109624761Y-106603452D01*
X109672380Y-106746309D01*
X109672380Y-106984404D01*
X108672380Y-105555833D02*
X108672380Y-105746309D01*
X108720000Y-105841547D01*
X108767619Y-105889166D01*
X108910476Y-105984404D01*
X109100952Y-106032023D01*
X109481904Y-106032023D01*
X109577142Y-105984404D01*
X109624761Y-105936785D01*
X109672380Y-105841547D01*
X109672380Y-105651071D01*
X109624761Y-105555833D01*
X109577142Y-105508214D01*
X109481904Y-105460595D01*
X109243809Y-105460595D01*
X109148571Y-105508214D01*
X109100952Y-105555833D01*
X109053333Y-105651071D01*
X109053333Y-105841547D01*
X109100952Y-105936785D01*
X109148571Y-105984404D01*
X109243809Y-106032023D01*
X107132380Y-106984404D02*
X106132380Y-106984404D01*
X106132380Y-106746309D01*
X106180000Y-106603452D01*
X106275238Y-106508214D01*
X106370476Y-106460595D01*
X106560952Y-106412976D01*
X106703809Y-106412976D01*
X106894285Y-106460595D01*
X106989523Y-106508214D01*
X107084761Y-106603452D01*
X107132380Y-106746309D01*
X107132380Y-106984404D01*
X106132380Y-105508214D02*
X106132380Y-105984404D01*
X106608571Y-106032023D01*
X106560952Y-105984404D01*
X106513333Y-105889166D01*
X106513333Y-105651071D01*
X106560952Y-105555833D01*
X106608571Y-105508214D01*
X106703809Y-105460595D01*
X106941904Y-105460595D01*
X107037142Y-105508214D01*
X107084761Y-105555833D01*
X107132380Y-105651071D01*
X107132380Y-105889166D01*
X107084761Y-105984404D01*
X107037142Y-106032023D01*
X104592380Y-106984404D02*
X103592380Y-106984404D01*
X103592380Y-106746309D01*
X103640000Y-106603452D01*
X103735238Y-106508214D01*
X103830476Y-106460595D01*
X104020952Y-106412976D01*
X104163809Y-106412976D01*
X104354285Y-106460595D01*
X104449523Y-106508214D01*
X104544761Y-106603452D01*
X104592380Y-106746309D01*
X104592380Y-106984404D01*
X103925714Y-105555833D02*
X104592380Y-105555833D01*
X103544761Y-105793928D02*
X104259047Y-106032023D01*
X104259047Y-105412976D01*
X102052380Y-106984404D02*
X101052380Y-106984404D01*
X101052380Y-106746309D01*
X101100000Y-106603452D01*
X101195238Y-106508214D01*
X101290476Y-106460595D01*
X101480952Y-106412976D01*
X101623809Y-106412976D01*
X101814285Y-106460595D01*
X101909523Y-106508214D01*
X102004761Y-106603452D01*
X102052380Y-106746309D01*
X102052380Y-106984404D01*
X101052380Y-106079642D02*
X101052380Y-105460595D01*
X101433333Y-105793928D01*
X101433333Y-105651071D01*
X101480952Y-105555833D01*
X101528571Y-105508214D01*
X101623809Y-105460595D01*
X101861904Y-105460595D01*
X101957142Y-105508214D01*
X102004761Y-105555833D01*
X102052380Y-105651071D01*
X102052380Y-105936785D01*
X102004761Y-106032023D01*
X101957142Y-106079642D01*
X99512380Y-106984404D02*
X98512380Y-106984404D01*
X98512380Y-106746309D01*
X98560000Y-106603452D01*
X98655238Y-106508214D01*
X98750476Y-106460595D01*
X98940952Y-106412976D01*
X99083809Y-106412976D01*
X99274285Y-106460595D01*
X99369523Y-106508214D01*
X99464761Y-106603452D01*
X99512380Y-106746309D01*
X99512380Y-106984404D01*
X98607619Y-106032023D02*
X98560000Y-105984404D01*
X98512380Y-105889166D01*
X98512380Y-105651071D01*
X98560000Y-105555833D01*
X98607619Y-105508214D01*
X98702857Y-105460595D01*
X98798095Y-105460595D01*
X98940952Y-105508214D01*
X99512380Y-106079642D01*
X99512380Y-105460595D01*
X96972380Y-106984404D02*
X95972380Y-106984404D01*
X95972380Y-106746309D01*
X96020000Y-106603452D01*
X96115238Y-106508214D01*
X96210476Y-106460595D01*
X96400952Y-106412976D01*
X96543809Y-106412976D01*
X96734285Y-106460595D01*
X96829523Y-106508214D01*
X96924761Y-106603452D01*
X96972380Y-106746309D01*
X96972380Y-106984404D01*
X96972380Y-105460595D02*
X96972380Y-106032023D01*
X96972380Y-105746309D02*
X95972380Y-105746309D01*
X96115238Y-105841547D01*
X96210476Y-105936785D01*
X96258095Y-106032023D01*
X94432380Y-106984404D02*
X93432380Y-106984404D01*
X93432380Y-106746309D01*
X93480000Y-106603452D01*
X93575238Y-106508214D01*
X93670476Y-106460595D01*
X93860952Y-106412976D01*
X94003809Y-106412976D01*
X94194285Y-106460595D01*
X94289523Y-106508214D01*
X94384761Y-106603452D01*
X94432380Y-106746309D01*
X94432380Y-106984404D01*
X93432380Y-105793928D02*
X93432380Y-105698690D01*
X93480000Y-105603452D01*
X93527619Y-105555833D01*
X93622857Y-105508214D01*
X93813333Y-105460595D01*
X94051428Y-105460595D01*
X94241904Y-105508214D01*
X94337142Y-105555833D01*
X94384761Y-105603452D01*
X94432380Y-105698690D01*
X94432380Y-105793928D01*
X94384761Y-105889166D01*
X94337142Y-105936785D01*
X94241904Y-105984404D01*
X94051428Y-106032023D01*
X93813333Y-106032023D01*
X93622857Y-105984404D01*
X93527619Y-105936785D01*
X93480000Y-105889166D01*
X93432380Y-105793928D01*
X91892380Y-106984404D02*
X90892380Y-106984404D01*
X90892380Y-106317738D02*
X90892380Y-106127261D01*
X90940000Y-106032023D01*
X91035238Y-105936785D01*
X91225714Y-105889166D01*
X91559047Y-105889166D01*
X91749523Y-105936785D01*
X91844761Y-106032023D01*
X91892380Y-106127261D01*
X91892380Y-106317738D01*
X91844761Y-106412976D01*
X91749523Y-106508214D01*
X91559047Y-106555833D01*
X91225714Y-106555833D01*
X91035238Y-106508214D01*
X90940000Y-106412976D01*
X90892380Y-106317738D01*
X91987619Y-105698690D02*
X91987619Y-104936785D01*
X91797142Y-104127261D02*
X91844761Y-104174880D01*
X91892380Y-104317738D01*
X91892380Y-104412976D01*
X91844761Y-104555833D01*
X91749523Y-104651071D01*
X91654285Y-104698690D01*
X91463809Y-104746309D01*
X91320952Y-104746309D01*
X91130476Y-104698690D01*
X91035238Y-104651071D01*
X90940000Y-104555833D01*
X90892380Y-104412976D01*
X90892380Y-104317738D01*
X90940000Y-104174880D01*
X90987619Y-104127261D01*
X91892380Y-103698690D02*
X90892380Y-103698690D01*
X91368571Y-103698690D02*
X91368571Y-103127261D01*
X91892380Y-103127261D02*
X90892380Y-103127261D01*
X91987619Y-102889166D02*
X91987619Y-102127261D01*
X91892380Y-101317738D02*
X91416190Y-101651071D01*
X91892380Y-101889166D02*
X90892380Y-101889166D01*
X90892380Y-101508214D01*
X90940000Y-101412976D01*
X90987619Y-101365357D01*
X91082857Y-101317738D01*
X91225714Y-101317738D01*
X91320952Y-101365357D01*
X91368571Y-101412976D01*
X91416190Y-101508214D01*
X91416190Y-101889166D01*
X91892380Y-100889166D02*
X90892380Y-100889166D01*
X90892380Y-100651071D01*
X90940000Y-100508214D01*
X91035238Y-100412976D01*
X91130476Y-100365357D01*
X91320952Y-100317738D01*
X91463809Y-100317738D01*
X91654285Y-100365357D01*
X91749523Y-100412976D01*
X91844761Y-100508214D01*
X91892380Y-100651071D01*
X91892380Y-100889166D01*
X91416190Y-99698690D02*
X91892380Y-99698690D01*
X90892380Y-100032023D02*
X91416190Y-99698690D01*
X90892380Y-99365357D01*
X89066666Y-107032023D02*
X89066666Y-106555833D01*
X89352380Y-107127261D02*
X88352380Y-106793928D01*
X89352380Y-106460595D01*
X88828571Y-106127261D02*
X88828571Y-105793928D01*
X89352380Y-105651071D02*
X89352380Y-106127261D01*
X88352380Y-106127261D01*
X88352380Y-105651071D01*
X89352380Y-105222500D02*
X88352380Y-105222500D01*
X89352380Y-104651071D01*
X88352380Y-104651071D01*
X86526666Y-107032023D02*
X86526666Y-106555833D01*
X86812380Y-107127261D02*
X85812380Y-106793928D01*
X86812380Y-106460595D01*
X86812380Y-105603452D02*
X86812380Y-106174880D01*
X86812380Y-105889166D02*
X85812380Y-105889166D01*
X85955238Y-105984404D01*
X86050476Y-106079642D01*
X86098095Y-106174880D01*
X86812380Y-105127261D02*
X86812380Y-104936785D01*
X86764761Y-104841547D01*
X86717142Y-104793928D01*
X86574285Y-104698690D01*
X86383809Y-104651071D01*
X86002857Y-104651071D01*
X85907619Y-104698690D01*
X85860000Y-104746309D01*
X85812380Y-104841547D01*
X85812380Y-105032023D01*
X85860000Y-105127261D01*
X85907619Y-105174880D01*
X86002857Y-105222500D01*
X86240952Y-105222500D01*
X86336190Y-105174880D01*
X86383809Y-105127261D01*
X86431428Y-105032023D01*
X86431428Y-104841547D01*
X86383809Y-104746309D01*
X86336190Y-104698690D01*
X86240952Y-104651071D01*
X83986666Y-107032023D02*
X83986666Y-106555833D01*
X84272380Y-107127261D02*
X83272380Y-106793928D01*
X84272380Y-106460595D01*
X84272380Y-105603452D02*
X84272380Y-106174880D01*
X84272380Y-105889166D02*
X83272380Y-105889166D01*
X83415238Y-105984404D01*
X83510476Y-106079642D01*
X83558095Y-106174880D01*
X83700952Y-105032023D02*
X83653333Y-105127261D01*
X83605714Y-105174880D01*
X83510476Y-105222500D01*
X83462857Y-105222500D01*
X83367619Y-105174880D01*
X83320000Y-105127261D01*
X83272380Y-105032023D01*
X83272380Y-104841547D01*
X83320000Y-104746309D01*
X83367619Y-104698690D01*
X83462857Y-104651071D01*
X83510476Y-104651071D01*
X83605714Y-104698690D01*
X83653333Y-104746309D01*
X83700952Y-104841547D01*
X83700952Y-105032023D01*
X83748571Y-105127261D01*
X83796190Y-105174880D01*
X83891428Y-105222500D01*
X84081904Y-105222500D01*
X84177142Y-105174880D01*
X84224761Y-105127261D01*
X84272380Y-105032023D01*
X84272380Y-104841547D01*
X84224761Y-104746309D01*
X84177142Y-104698690D01*
X84081904Y-104651071D01*
X83891428Y-104651071D01*
X83796190Y-104698690D01*
X83748571Y-104746309D01*
X83700952Y-104841547D01*
X81446666Y-107032023D02*
X81446666Y-106555833D01*
X81732380Y-107127261D02*
X80732380Y-106793928D01*
X81732380Y-106460595D01*
X81732380Y-105603452D02*
X81732380Y-106174880D01*
X81732380Y-105889166D02*
X80732380Y-105889166D01*
X80875238Y-105984404D01*
X80970476Y-106079642D01*
X81018095Y-106174880D01*
X80732380Y-105270119D02*
X80732380Y-104603452D01*
X81732380Y-105032023D01*
X78906666Y-107032023D02*
X78906666Y-106555833D01*
X79192380Y-107127261D02*
X78192380Y-106793928D01*
X79192380Y-106460595D01*
X79192380Y-105603452D02*
X79192380Y-106174880D01*
X79192380Y-105889166D02*
X78192380Y-105889166D01*
X78335238Y-105984404D01*
X78430476Y-106079642D01*
X78478095Y-106174880D01*
X78192380Y-104746309D02*
X78192380Y-104936785D01*
X78240000Y-105032023D01*
X78287619Y-105079642D01*
X78430476Y-105174880D01*
X78620952Y-105222500D01*
X79001904Y-105222500D01*
X79097142Y-105174880D01*
X79144761Y-105127261D01*
X79192380Y-105032023D01*
X79192380Y-104841547D01*
X79144761Y-104746309D01*
X79097142Y-104698690D01*
X79001904Y-104651071D01*
X78763809Y-104651071D01*
X78668571Y-104698690D01*
X78620952Y-104746309D01*
X78573333Y-104841547D01*
X78573333Y-105032023D01*
X78620952Y-105127261D01*
X78668571Y-105174880D01*
X78763809Y-105222500D01*
X76366666Y-107032023D02*
X76366666Y-106555833D01*
X76652380Y-107127261D02*
X75652380Y-106793928D01*
X76652380Y-106460595D01*
X76652380Y-105603452D02*
X76652380Y-106174880D01*
X76652380Y-105889166D02*
X75652380Y-105889166D01*
X75795238Y-105984404D01*
X75890476Y-106079642D01*
X75938095Y-106174880D01*
X75652380Y-104698690D02*
X75652380Y-105174880D01*
X76128571Y-105222500D01*
X76080952Y-105174880D01*
X76033333Y-105079642D01*
X76033333Y-104841547D01*
X76080952Y-104746309D01*
X76128571Y-104698690D01*
X76223809Y-104651071D01*
X76461904Y-104651071D01*
X76557142Y-104698690D01*
X76604761Y-104746309D01*
X76652380Y-104841547D01*
X76652380Y-105079642D01*
X76604761Y-105174880D01*
X76557142Y-105222500D01*
X73826666Y-107032023D02*
X73826666Y-106555833D01*
X74112380Y-107127261D02*
X73112380Y-106793928D01*
X74112380Y-106460595D01*
X74112380Y-105603452D02*
X74112380Y-106174880D01*
X74112380Y-105889166D02*
X73112380Y-105889166D01*
X73255238Y-105984404D01*
X73350476Y-106079642D01*
X73398095Y-106174880D01*
X73445714Y-104746309D02*
X74112380Y-104746309D01*
X73064761Y-104984404D02*
X73779047Y-105222500D01*
X73779047Y-104603452D01*
X71286666Y-107032023D02*
X71286666Y-106555833D01*
X71572380Y-107127261D02*
X70572380Y-106793928D01*
X71572380Y-106460595D01*
X71572380Y-105603452D02*
X71572380Y-106174880D01*
X71572380Y-105889166D02*
X70572380Y-105889166D01*
X70715238Y-105984404D01*
X70810476Y-106079642D01*
X70858095Y-106174880D01*
X70572380Y-105270119D02*
X70572380Y-104651071D01*
X70953333Y-104984404D01*
X70953333Y-104841547D01*
X71000952Y-104746309D01*
X71048571Y-104698690D01*
X71143809Y-104651071D01*
X71381904Y-104651071D01*
X71477142Y-104698690D01*
X71524761Y-104746309D01*
X71572380Y-104841547D01*
X71572380Y-105127261D01*
X71524761Y-105222500D01*
X71477142Y-105270119D01*
X68746666Y-107032023D02*
X68746666Y-106555833D01*
X69032380Y-107127261D02*
X68032380Y-106793928D01*
X69032380Y-106460595D01*
X69032380Y-105603452D02*
X69032380Y-106174880D01*
X69032380Y-105889166D02*
X68032380Y-105889166D01*
X68175238Y-105984404D01*
X68270476Y-106079642D01*
X68318095Y-106174880D01*
X68127619Y-105222500D02*
X68080000Y-105174880D01*
X68032380Y-105079642D01*
X68032380Y-104841547D01*
X68080000Y-104746309D01*
X68127619Y-104698690D01*
X68222857Y-104651071D01*
X68318095Y-104651071D01*
X68460952Y-104698690D01*
X69032380Y-105270119D01*
X69032380Y-104651071D01*
X66206666Y-107032023D02*
X66206666Y-106555833D01*
X66492380Y-107127261D02*
X65492380Y-106793928D01*
X66492380Y-106460595D01*
X66492380Y-105603452D02*
X66492380Y-106174880D01*
X66492380Y-105889166D02*
X65492380Y-105889166D01*
X65635238Y-105984404D01*
X65730476Y-106079642D01*
X65778095Y-106174880D01*
X66492380Y-104651071D02*
X66492380Y-105222500D01*
X66492380Y-104936785D02*
X65492380Y-104936785D01*
X65635238Y-105032023D01*
X65730476Y-105127261D01*
X65778095Y-105222500D01*
X63666666Y-107032023D02*
X63666666Y-106555833D01*
X63952380Y-107127261D02*
X62952380Y-106793928D01*
X63952380Y-106460595D01*
X63952380Y-105603452D02*
X63952380Y-106174880D01*
X63952380Y-105889166D02*
X62952380Y-105889166D01*
X63095238Y-105984404D01*
X63190476Y-106079642D01*
X63238095Y-106174880D01*
X62952380Y-104984404D02*
X62952380Y-104889166D01*
X63000000Y-104793928D01*
X63047619Y-104746309D01*
X63142857Y-104698690D01*
X63333333Y-104651071D01*
X63571428Y-104651071D01*
X63761904Y-104698690D01*
X63857142Y-104746309D01*
X63904761Y-104793928D01*
X63952380Y-104889166D01*
X63952380Y-104984404D01*
X63904761Y-105079642D01*
X63857142Y-105127261D01*
X63761904Y-105174880D01*
X63571428Y-105222500D01*
X63333333Y-105222500D01*
X63142857Y-105174880D01*
X63047619Y-105127261D01*
X63000000Y-105079642D01*
X62952380Y-104984404D01*
X61126666Y-107032023D02*
X61126666Y-106555833D01*
X61412380Y-107127261D02*
X60412380Y-106793928D01*
X61412380Y-106460595D01*
X61412380Y-106079642D02*
X61412380Y-105889166D01*
X61364761Y-105793928D01*
X61317142Y-105746309D01*
X61174285Y-105651071D01*
X60983809Y-105603452D01*
X60602857Y-105603452D01*
X60507619Y-105651071D01*
X60460000Y-105698690D01*
X60412380Y-105793928D01*
X60412380Y-105984404D01*
X60460000Y-106079642D01*
X60507619Y-106127261D01*
X60602857Y-106174880D01*
X60840952Y-106174880D01*
X60936190Y-106127261D01*
X60983809Y-106079642D01*
X61031428Y-105984404D01*
X61031428Y-105793928D01*
X60983809Y-105698690D01*
X60936190Y-105651071D01*
X60840952Y-105603452D01*
X58586666Y-107032023D02*
X58586666Y-106555833D01*
X58872380Y-107127261D02*
X57872380Y-106793928D01*
X58872380Y-106460595D01*
X58300952Y-105984404D02*
X58253333Y-106079642D01*
X58205714Y-106127261D01*
X58110476Y-106174880D01*
X58062857Y-106174880D01*
X57967619Y-106127261D01*
X57920000Y-106079642D01*
X57872380Y-105984404D01*
X57872380Y-105793928D01*
X57920000Y-105698690D01*
X57967619Y-105651071D01*
X58062857Y-105603452D01*
X58110476Y-105603452D01*
X58205714Y-105651071D01*
X58253333Y-105698690D01*
X58300952Y-105793928D01*
X58300952Y-105984404D01*
X58348571Y-106079642D01*
X58396190Y-106127261D01*
X58491428Y-106174880D01*
X58681904Y-106174880D01*
X58777142Y-106127261D01*
X58824761Y-106079642D01*
X58872380Y-105984404D01*
X58872380Y-105793928D01*
X58824761Y-105698690D01*
X58777142Y-105651071D01*
X58681904Y-105603452D01*
X58491428Y-105603452D01*
X58396190Y-105651071D01*
X58348571Y-105698690D01*
X58300952Y-105793928D01*
X56046666Y-107032023D02*
X56046666Y-106555833D01*
X56332380Y-107127261D02*
X55332380Y-106793928D01*
X56332380Y-106460595D01*
X55332380Y-106222500D02*
X55332380Y-105555833D01*
X56332380Y-105984404D01*
X53506666Y-107032023D02*
X53506666Y-106555833D01*
X53792380Y-107127261D02*
X52792380Y-106793928D01*
X53792380Y-106460595D01*
X52792380Y-105698690D02*
X52792380Y-105889166D01*
X52840000Y-105984404D01*
X52887619Y-106032023D01*
X53030476Y-106127261D01*
X53220952Y-106174880D01*
X53601904Y-106174880D01*
X53697142Y-106127261D01*
X53744761Y-106079642D01*
X53792380Y-105984404D01*
X53792380Y-105793928D01*
X53744761Y-105698690D01*
X53697142Y-105651071D01*
X53601904Y-105603452D01*
X53363809Y-105603452D01*
X53268571Y-105651071D01*
X53220952Y-105698690D01*
X53173333Y-105793928D01*
X53173333Y-105984404D01*
X53220952Y-106079642D01*
X53268571Y-106127261D01*
X53363809Y-106174880D01*
X50966666Y-107032023D02*
X50966666Y-106555833D01*
X51252380Y-107127261D02*
X50252380Y-106793928D01*
X51252380Y-106460595D01*
X50252380Y-105651071D02*
X50252380Y-106127261D01*
X50728571Y-106174880D01*
X50680952Y-106127261D01*
X50633333Y-106032023D01*
X50633333Y-105793928D01*
X50680952Y-105698690D01*
X50728571Y-105651071D01*
X50823809Y-105603452D01*
X51061904Y-105603452D01*
X51157142Y-105651071D01*
X51204761Y-105698690D01*
X51252380Y-105793928D01*
X51252380Y-106032023D01*
X51204761Y-106127261D01*
X51157142Y-106174880D01*
X48426666Y-107032023D02*
X48426666Y-106555833D01*
X48712380Y-107127261D02*
X47712380Y-106793928D01*
X48712380Y-106460595D01*
X48045714Y-105698690D02*
X48712380Y-105698690D01*
X47664761Y-105936785D02*
X48379047Y-106174880D01*
X48379047Y-105555833D01*
X45886666Y-107032023D02*
X45886666Y-106555833D01*
X46172380Y-107127261D02*
X45172380Y-106793928D01*
X46172380Y-106460595D01*
X45172380Y-106222500D02*
X45172380Y-105603452D01*
X45553333Y-105936785D01*
X45553333Y-105793928D01*
X45600952Y-105698690D01*
X45648571Y-105651071D01*
X45743809Y-105603452D01*
X45981904Y-105603452D01*
X46077142Y-105651071D01*
X46124761Y-105698690D01*
X46172380Y-105793928D01*
X46172380Y-106079642D01*
X46124761Y-106174880D01*
X46077142Y-106222500D01*
X43346666Y-107032023D02*
X43346666Y-106555833D01*
X43632380Y-107127261D02*
X42632380Y-106793928D01*
X43632380Y-106460595D01*
X42727619Y-106174880D02*
X42680000Y-106127261D01*
X42632380Y-106032023D01*
X42632380Y-105793928D01*
X42680000Y-105698690D01*
X42727619Y-105651071D01*
X42822857Y-105603452D01*
X42918095Y-105603452D01*
X43060952Y-105651071D01*
X43632380Y-106222500D01*
X43632380Y-105603452D01*
X40806666Y-107032023D02*
X40806666Y-106555833D01*
X41092380Y-107127261D02*
X40092380Y-106793928D01*
X41092380Y-106460595D01*
X41092380Y-105603452D02*
X41092380Y-106174880D01*
X41092380Y-105889166D02*
X40092380Y-105889166D01*
X40235238Y-105984404D01*
X40330476Y-106079642D01*
X40378095Y-106174880D01*
X38266666Y-107032023D02*
X38266666Y-106555833D01*
X38552380Y-107127261D02*
X37552380Y-106793928D01*
X38552380Y-106460595D01*
X37552380Y-105936785D02*
X37552380Y-105841547D01*
X37600000Y-105746309D01*
X37647619Y-105698690D01*
X37742857Y-105651071D01*
X37933333Y-105603452D01*
X38171428Y-105603452D01*
X38361904Y-105651071D01*
X38457142Y-105698690D01*
X38504761Y-105746309D01*
X38552380Y-105841547D01*
X38552380Y-105936785D01*
X38504761Y-106032023D01*
X38457142Y-106079642D01*
X38361904Y-106127261D01*
X38171428Y-106174880D01*
X37933333Y-106174880D01*
X37742857Y-106127261D01*
X37647619Y-106079642D01*
X37600000Y-106032023D01*
X37552380Y-105936785D01*
D11*
X115175000Y-30700000D02*
G75*
G03*
X115175000Y-30700000I-100000J0D01*
G01*
X72175000Y-53175000D02*
G75*
G03*
X72175000Y-53175000I-100000J0D01*
G01*
X33650000Y-71000000D02*
G75*
G03*
X33650000Y-71000000I-100000J0D01*
G01*
X106675000Y-90550000D02*
G75*
G03*
X106675000Y-90550000I-100000J0D01*
G01*
X97300000Y-98100000D02*
G75*
G03*
X97300000Y-98100000I-100000J0D01*
G01*
X87075000Y-90475000D02*
G75*
G03*
X87075000Y-90475000I-100000J0D01*
G01*
X76875000Y-98375000D02*
G75*
G03*
X76875000Y-98375000I-100000J0D01*
G01*
X66825000Y-90450000D02*
G75*
G03*
X66825000Y-90450000I-100000J0D01*
G01*
X56675000Y-98175000D02*
G75*
G03*
X56675000Y-98175000I-100000J0D01*
G01*
X46475000Y-90400000D02*
G75*
G03*
X46475000Y-90400000I-100000J0D01*
G01*
X36350000Y-98075000D02*
G75*
G03*
X36350000Y-98075000I-100000J0D01*
G01*
X15925000Y-98100000D02*
G75*
G03*
X15925000Y-98100000I-100000J0D01*
G01*
X26175000Y-90450000D02*
G75*
G03*
X26175000Y-90450000I-100000J0D01*
G01*
D13*
X66040238Y-29811904D02*
X64611666Y-29811904D01*
X64325952Y-29716666D01*
X64135476Y-29526190D01*
X64040238Y-29240476D01*
X64040238Y-29050000D01*
X64040238Y-31716666D02*
X64040238Y-30764285D01*
X66040238Y-30764285D01*
X64230714Y-33526190D02*
X64135476Y-33430952D01*
X64040238Y-33145238D01*
X64040238Y-32954761D01*
X64135476Y-32669047D01*
X64325952Y-32478571D01*
X64516428Y-32383333D01*
X64897380Y-32288095D01*
X65183095Y-32288095D01*
X65564047Y-32383333D01*
X65754523Y-32478571D01*
X65945000Y-32669047D01*
X66040238Y-32954761D01*
X66040238Y-33145238D01*
X65945000Y-33430952D01*
X65849761Y-33526190D01*
X66040238Y-34954761D02*
X64611666Y-34954761D01*
X64325952Y-34859523D01*
X64135476Y-34669047D01*
X64040238Y-34383333D01*
X64040238Y-34192857D01*
X64040238Y-36859523D02*
X64040238Y-35907142D01*
X66040238Y-35907142D01*
X64230714Y-38669047D02*
X64135476Y-38573809D01*
X64040238Y-38288095D01*
X64040238Y-38097619D01*
X64135476Y-37811904D01*
X64325952Y-37621428D01*
X64516428Y-37526190D01*
X64897380Y-37430952D01*
X65183095Y-37430952D01*
X65564047Y-37526190D01*
X65754523Y-37621428D01*
X65945000Y-37811904D01*
X66040238Y-38097619D01*
X66040238Y-38288095D01*
X65945000Y-38573809D01*
X65849761Y-38669047D01*
X66040238Y-40097619D02*
X64611666Y-40097619D01*
X64325952Y-40002380D01*
X64135476Y-39811904D01*
X64040238Y-39526190D01*
X64040238Y-39335714D01*
X64040238Y-42002380D02*
X64040238Y-41050000D01*
X66040238Y-41050000D01*
X64230714Y-43811904D02*
X64135476Y-43716666D01*
X64040238Y-43430952D01*
X64040238Y-43240476D01*
X64135476Y-42954761D01*
X64325952Y-42764285D01*
X64516428Y-42669047D01*
X64897380Y-42573809D01*
X65183095Y-42573809D01*
X65564047Y-42669047D01*
X65754523Y-42764285D01*
X65945000Y-42954761D01*
X66040238Y-43240476D01*
X66040238Y-43430952D01*
X65945000Y-43716666D01*
X65849761Y-43811904D01*
X66040238Y-45240476D02*
X64611666Y-45240476D01*
X64325952Y-45145238D01*
X64135476Y-44954761D01*
X64040238Y-44669047D01*
X64040238Y-44478571D01*
X64040238Y-47145238D02*
X64040238Y-46192857D01*
X66040238Y-46192857D01*
X64230714Y-48954761D02*
X64135476Y-48859523D01*
X64040238Y-48573809D01*
X64040238Y-48383333D01*
X64135476Y-48097619D01*
X64325952Y-47907142D01*
X64516428Y-47811904D01*
X64897380Y-47716666D01*
X65183095Y-47716666D01*
X65564047Y-47811904D01*
X65754523Y-47907142D01*
X65945000Y-48097619D01*
X66040238Y-48383333D01*
X66040238Y-48573809D01*
X65945000Y-48859523D01*
X65849761Y-48954761D01*
D11*
X70045000Y-25650000D02*
G75*
G03*
X70045000Y-25650000I-100000J0D01*
G01*
X37345000Y-50350000D02*
G75*
G03*
X37345000Y-50350000I-100000J0D01*
G01*
X110178571Y-17428571D02*
X109678571Y-16714285D01*
X109321428Y-17428571D02*
X109321428Y-15928571D01*
X109892857Y-15928571D01*
X110035714Y-16000000D01*
X110107142Y-16071428D01*
X110178571Y-16214285D01*
X110178571Y-16428571D01*
X110107142Y-16571428D01*
X110035714Y-16642857D01*
X109892857Y-16714285D01*
X109321428Y-16714285D01*
X111392857Y-17357142D02*
X111250000Y-17428571D01*
X110964285Y-17428571D01*
X110821428Y-17357142D01*
X110750000Y-17214285D01*
X110750000Y-16642857D01*
X110821428Y-16500000D01*
X110964285Y-16428571D01*
X111250000Y-16428571D01*
X111392857Y-16500000D01*
X111464285Y-16642857D01*
X111464285Y-16785714D01*
X110750000Y-16928571D01*
X112750000Y-17428571D02*
X112750000Y-16642857D01*
X112678571Y-16500000D01*
X112535714Y-16428571D01*
X112250000Y-16428571D01*
X112107142Y-16500000D01*
X112750000Y-17357142D02*
X112607142Y-17428571D01*
X112250000Y-17428571D01*
X112107142Y-17357142D01*
X112035714Y-17214285D01*
X112035714Y-17071428D01*
X112107142Y-16928571D01*
X112250000Y-16857142D01*
X112607142Y-16857142D01*
X112750000Y-16785714D01*
X113464285Y-17428571D02*
X113464285Y-16428571D01*
X113464285Y-16714285D02*
X113535714Y-16571428D01*
X113607142Y-16500000D01*
X113750000Y-16428571D01*
X113892857Y-16428571D01*
D14*
%TO.C,TP1*%
X112200000Y-56000000D02*
X114600000Y-56000000D01*
X114600000Y-56000000D02*
X114600000Y-58400000D01*
X114600000Y-58400000D02*
X112200000Y-58400000D01*
X112200000Y-58400000D02*
X112200000Y-56000000D01*
%TO.C,Y1*%
X78450000Y-51320000D02*
X78450000Y-48020000D01*
X78450000Y-48020000D02*
X74450000Y-48020000D01*
%TO.C,U15*%
X72915000Y-52885000D02*
X72440000Y-52885000D01*
X76660000Y-57105000D02*
X76660000Y-56630000D01*
X76185000Y-57105000D02*
X76660000Y-57105000D01*
X72440000Y-57105000D02*
X72440000Y-56630000D01*
X72915000Y-57105000D02*
X72440000Y-57105000D01*
X76660000Y-52885000D02*
X76660000Y-53360000D01*
X76185000Y-52885000D02*
X76660000Y-52885000D01*
%TO.C,U14*%
X111463000Y-31033000D02*
X111463000Y-32833000D01*
X114683000Y-32833000D02*
X114683000Y-30383000D01*
%TO.C,SW1*%
X98108000Y-19280000D02*
X98108000Y-20280000D01*
X98108000Y-20280000D02*
X99608000Y-20280000D01*
X100108000Y-15280000D02*
X104108000Y-15280000D01*
X100108000Y-20280000D02*
X104108000Y-20280000D01*
%TO.C,R20*%
X78965000Y-50057779D02*
X78965000Y-49732221D01*
X79985000Y-50057779D02*
X79985000Y-49732221D01*
%TO.C,JP1*%
X107300000Y-30400000D02*
X109300000Y-30400000D01*
X107300000Y-33200000D02*
X107300000Y-30400000D01*
X109300000Y-33200000D02*
X107300000Y-33200000D01*
X109300000Y-30400000D02*
X109300000Y-33200000D01*
%TO.C,J5*%
X89830000Y-19070000D02*
X89195000Y-19070000D01*
X89195000Y-19070000D02*
X89195000Y-18435000D01*
%TO.C,J4*%
X111852000Y-27965000D02*
X113652000Y-27965000D01*
X117362000Y-27965000D02*
X115902000Y-27965000D01*
X117362000Y-19025000D02*
X115902000Y-19025000D01*
X111852000Y-19025000D02*
X113652000Y-19025000D01*
X117362000Y-19025000D02*
X117362000Y-27965000D01*
%TO.C,J2*%
X111852000Y-46126000D02*
X113652000Y-46126000D01*
X117362000Y-46126000D02*
X115902000Y-46126000D01*
X117362000Y-37186000D02*
X115902000Y-37186000D01*
X111852000Y-37186000D02*
X113652000Y-37186000D01*
X117362000Y-37186000D02*
X117362000Y-46126000D01*
%TO.C,D5*%
X92238000Y-49333000D02*
X92238000Y-51618000D01*
X92238000Y-51618000D02*
X93708000Y-51618000D01*
X93708000Y-51618000D02*
X93708000Y-49333000D01*
%TO.C,D4*%
X90238000Y-49333000D02*
X90238000Y-51618000D01*
X90238000Y-51618000D02*
X91708000Y-51618000D01*
X91708000Y-51618000D02*
X91708000Y-49333000D01*
%TO.C,D3*%
X88238000Y-49333000D02*
X88238000Y-51618000D01*
X88238000Y-51618000D02*
X89708000Y-51618000D01*
X89708000Y-51618000D02*
X89708000Y-49333000D01*
%TO.C,D2*%
X86038000Y-49333000D02*
X86038000Y-51618000D01*
X86038000Y-51618000D02*
X87508000Y-51618000D01*
X87508000Y-51618000D02*
X87508000Y-49333000D01*
%TO.C,D1*%
X83938000Y-49333000D02*
X83938000Y-51618000D01*
X83938000Y-51618000D02*
X85408000Y-51618000D01*
X85408000Y-51618000D02*
X85408000Y-49333000D01*
%TO.C,X1*%
X27773000Y-63193000D02*
X27773000Y-63133000D01*
X27773000Y-63133000D02*
X33173000Y-63133000D01*
X33173000Y-63133000D02*
X33173000Y-63193000D01*
X27773000Y-68273000D02*
X27773000Y-65393000D01*
X33773000Y-70473000D02*
X33173000Y-70473000D01*
X33173000Y-70473000D02*
X33173000Y-70533000D01*
X33173000Y-70533000D02*
X27773000Y-70533000D01*
X27773000Y-70533000D02*
X27773000Y-70473000D01*
X33173000Y-65393000D02*
X33173000Y-68273000D01*
X33173000Y-68273000D02*
X33773000Y-68273000D01*
%TO.C,U13*%
X26445000Y-86995000D02*
X26445000Y-90595000D01*
X26445000Y-86995000D02*
X26445000Y-84795000D01*
X34515000Y-86995000D02*
X34515000Y-89195000D01*
X34515000Y-86995000D02*
X34515000Y-84795000D01*
%TO.C,U12*%
X16285000Y-94615000D02*
X16285000Y-98215000D01*
X16285000Y-94615000D02*
X16285000Y-92415000D01*
X24355000Y-94615000D02*
X24355000Y-96815000D01*
X24355000Y-94615000D02*
X24355000Y-92415000D01*
%TO.C,U11*%
X77245000Y-94615000D02*
X77245000Y-98215000D01*
X77245000Y-94615000D02*
X77245000Y-92415000D01*
X85315000Y-94615000D02*
X85315000Y-96815000D01*
X85315000Y-94615000D02*
X85315000Y-92415000D01*
%TO.C,U10*%
X56925000Y-94615000D02*
X56925000Y-98215000D01*
X56925000Y-94615000D02*
X56925000Y-92415000D01*
X64995000Y-94615000D02*
X64995000Y-96815000D01*
X64995000Y-94615000D02*
X64995000Y-92415000D01*
%TO.C,U9*%
X36605000Y-94615000D02*
X36605000Y-98215000D01*
X36605000Y-94615000D02*
X36605000Y-92415000D01*
X44675000Y-94615000D02*
X44675000Y-96815000D01*
X44675000Y-94615000D02*
X44675000Y-92415000D01*
%TO.C,U8*%
X106963000Y-86995000D02*
X106963000Y-90595000D01*
X106963000Y-86995000D02*
X106963000Y-84795000D01*
X115033000Y-86995000D02*
X115033000Y-89195000D01*
X115033000Y-86995000D02*
X115033000Y-84795000D01*
%TO.C,U7*%
X67085000Y-86995000D02*
X67085000Y-90595000D01*
X67085000Y-86995000D02*
X67085000Y-84795000D01*
X75155000Y-86995000D02*
X75155000Y-89195000D01*
X75155000Y-86995000D02*
X75155000Y-84795000D01*
%TO.C,U6*%
X46765000Y-86995000D02*
X46765000Y-90595000D01*
X46765000Y-86995000D02*
X46765000Y-84795000D01*
X54835000Y-86995000D02*
X54835000Y-89195000D01*
X54835000Y-86995000D02*
X54835000Y-84795000D01*
%TO.C,U4*%
X87405000Y-86995000D02*
X87405000Y-90595000D01*
X87405000Y-86995000D02*
X87405000Y-84795000D01*
X95475000Y-86995000D02*
X95475000Y-89195000D01*
X95475000Y-86995000D02*
X95475000Y-84795000D01*
%TO.C,U3*%
X97565000Y-94615000D02*
X97565000Y-98215000D01*
X97565000Y-94615000D02*
X97565000Y-92415000D01*
X105635000Y-94615000D02*
X105635000Y-96815000D01*
X105635000Y-94615000D02*
X105635000Y-92415000D01*
%TO.C,C34*%
X109912779Y-70743000D02*
X109587221Y-70743000D01*
X109912779Y-69723000D02*
X109587221Y-69723000D01*
%TO.C,C2*%
X63310779Y-61968000D02*
X62985221Y-61968000D01*
X63310779Y-60948000D02*
X62985221Y-60948000D01*
%TO.C,C1*%
X40308000Y-59695221D02*
X40308000Y-60020779D01*
X39288000Y-59695221D02*
X39288000Y-60020779D01*
%TO.C,U1*%
X46235000Y-50110000D02*
X46235000Y-51060000D01*
X46235000Y-51060000D02*
X47185000Y-51060000D01*
X46235000Y-27790000D02*
X46235000Y-26840000D01*
X46235000Y-26840000D02*
X47185000Y-26840000D01*
X70455000Y-50110000D02*
X70455000Y-51060000D01*
X70455000Y-51060000D02*
X69505000Y-51060000D01*
X70455000Y-27790000D02*
X70455000Y-26840000D01*
X70455000Y-26840000D02*
X69505000Y-26840000D01*
X69505000Y-26840000D02*
X69505000Y-25525000D01*
%TO.C,U5*%
X114415000Y-61273000D02*
X113155000Y-61273000D01*
X107595000Y-61273000D02*
X108855000Y-61273000D01*
X114415000Y-65033000D02*
X114415000Y-61273000D01*
X107595000Y-67283000D02*
X107595000Y-61273000D01*
%TO.C,J3*%
X84210000Y-18530000D02*
X84210000Y-15870000D01*
X79070000Y-18530000D02*
X84210000Y-18530000D01*
X79070000Y-15870000D02*
X84210000Y-15870000D01*
X79070000Y-18530000D02*
X79070000Y-15870000D01*
X77800000Y-18530000D02*
X76470000Y-18530000D01*
X76470000Y-18530000D02*
X76470000Y-17200000D01*
%TO.C,C18*%
X113910221Y-69723000D02*
X114235779Y-69723000D01*
X113910221Y-70743000D02*
X114235779Y-70743000D01*
%TO.C,Y2*%
X57695000Y-20260000D02*
X51945000Y-20260000D01*
X57695000Y-23860000D02*
X57695000Y-20260000D01*
X51945000Y-23860000D02*
X57695000Y-23860000D01*
%TO.C,U2*%
X36445000Y-28050000D02*
X36445000Y-27650000D01*
X25845000Y-28050000D02*
X25845000Y-27650000D01*
X25845000Y-50250000D02*
X25845000Y-49850000D01*
X36445000Y-27650000D02*
X25845000Y-27650000D01*
X36445000Y-50250000D02*
X25845000Y-50250000D01*
X36445000Y-49850000D02*
X36445000Y-50250000D01*
X37645000Y-49850000D02*
X36445000Y-49850000D01*
%TO.C,H2*%
D10*
X12523809Y-109785714D02*
X12904761Y-109785714D01*
X12666666Y-109452380D02*
X12666666Y-110309523D01*
X12714285Y-110404761D01*
X12809523Y-110452380D01*
X12904761Y-110452380D01*
X13380952Y-110452380D02*
X13285714Y-110404761D01*
X13238095Y-110357142D01*
X13190476Y-110261904D01*
X13190476Y-109976190D01*
X13238095Y-109880952D01*
X13285714Y-109833333D01*
X13380952Y-109785714D01*
X13523809Y-109785714D01*
X13619047Y-109833333D01*
X13666666Y-109880952D01*
X13714285Y-109976190D01*
X13714285Y-110261904D01*
X13666666Y-110357142D01*
X13619047Y-110404761D01*
X13523809Y-110452380D01*
X13380952Y-110452380D01*
X14285714Y-110452380D02*
X14190476Y-110404761D01*
X14142857Y-110357142D01*
X14095238Y-110261904D01*
X14095238Y-109976190D01*
X14142857Y-109880952D01*
X14190476Y-109833333D01*
X14285714Y-109785714D01*
X14428571Y-109785714D01*
X14523809Y-109833333D01*
X14571428Y-109880952D01*
X14619047Y-109976190D01*
X14619047Y-110261904D01*
X14571428Y-110357142D01*
X14523809Y-110404761D01*
X14428571Y-110452380D01*
X14285714Y-110452380D01*
X15190476Y-110452380D02*
X15095238Y-110404761D01*
X15047619Y-110309523D01*
X15047619Y-109452380D01*
X15571428Y-110452380D02*
X15571428Y-109785714D01*
X15571428Y-109452380D02*
X15523809Y-109500000D01*
X15571428Y-109547619D01*
X15619047Y-109500000D01*
X15571428Y-109452380D01*
X15571428Y-109547619D01*
X16047619Y-109785714D02*
X16047619Y-110452380D01*
X16047619Y-109880952D02*
X16095238Y-109833333D01*
X16190476Y-109785714D01*
X16333333Y-109785714D01*
X16428571Y-109833333D01*
X16476190Y-109928571D01*
X16476190Y-110452380D01*
X17380952Y-109785714D02*
X17380952Y-110595238D01*
X17333333Y-110690476D01*
X17285714Y-110738095D01*
X17190476Y-110785714D01*
X17047619Y-110785714D01*
X16952380Y-110738095D01*
X17380952Y-110404761D02*
X17285714Y-110452380D01*
X17095238Y-110452380D01*
X17000000Y-110404761D01*
X16952380Y-110357142D01*
X16904761Y-110261904D01*
X16904761Y-109976190D01*
X16952380Y-109880952D01*
X17000000Y-109833333D01*
X17095238Y-109785714D01*
X17285714Y-109785714D01*
X17380952Y-109833333D01*
X18619047Y-110452380D02*
X18619047Y-109452380D01*
X19047619Y-110452380D02*
X19047619Y-109928571D01*
X19000000Y-109833333D01*
X18904761Y-109785714D01*
X18761904Y-109785714D01*
X18666666Y-109833333D01*
X18619047Y-109880952D01*
X19666666Y-110452380D02*
X19571428Y-110404761D01*
X19523809Y-110357142D01*
X19476190Y-110261904D01*
X19476190Y-109976190D01*
X19523809Y-109880952D01*
X19571428Y-109833333D01*
X19666666Y-109785714D01*
X19809523Y-109785714D01*
X19904761Y-109833333D01*
X19952380Y-109880952D01*
X20000000Y-109976190D01*
X20000000Y-110261904D01*
X19952380Y-110357142D01*
X19904761Y-110404761D01*
X19809523Y-110452380D01*
X19666666Y-110452380D01*
X20571428Y-110452380D02*
X20476190Y-110404761D01*
X20428571Y-110309523D01*
X20428571Y-109452380D01*
X21333333Y-110404761D02*
X21238095Y-110452380D01*
X21047619Y-110452380D01*
X20952380Y-110404761D01*
X20904761Y-110309523D01*
X20904761Y-109928571D01*
X20952380Y-109833333D01*
X21047619Y-109785714D01*
X21238095Y-109785714D01*
X21333333Y-109833333D01*
X21380952Y-109928571D01*
X21380952Y-110023809D01*
X20904761Y-110119047D01*
%TO.C,H1*%
X117523809Y-20785714D02*
X117904761Y-20785714D01*
X117666666Y-20452380D02*
X117666666Y-21309523D01*
X117714285Y-21404761D01*
X117809523Y-21452380D01*
X117904761Y-21452380D01*
X118380952Y-21452380D02*
X118285714Y-21404761D01*
X118238095Y-21357142D01*
X118190476Y-21261904D01*
X118190476Y-20976190D01*
X118238095Y-20880952D01*
X118285714Y-20833333D01*
X118380952Y-20785714D01*
X118523809Y-20785714D01*
X118619047Y-20833333D01*
X118666666Y-20880952D01*
X118714285Y-20976190D01*
X118714285Y-21261904D01*
X118666666Y-21357142D01*
X118619047Y-21404761D01*
X118523809Y-21452380D01*
X118380952Y-21452380D01*
X119285714Y-21452380D02*
X119190476Y-21404761D01*
X119142857Y-21357142D01*
X119095238Y-21261904D01*
X119095238Y-20976190D01*
X119142857Y-20880952D01*
X119190476Y-20833333D01*
X119285714Y-20785714D01*
X119428571Y-20785714D01*
X119523809Y-20833333D01*
X119571428Y-20880952D01*
X119619047Y-20976190D01*
X119619047Y-21261904D01*
X119571428Y-21357142D01*
X119523809Y-21404761D01*
X119428571Y-21452380D01*
X119285714Y-21452380D01*
X120190476Y-21452380D02*
X120095238Y-21404761D01*
X120047619Y-21309523D01*
X120047619Y-20452380D01*
X120571428Y-21452380D02*
X120571428Y-20785714D01*
X120571428Y-20452380D02*
X120523809Y-20500000D01*
X120571428Y-20547619D01*
X120619047Y-20500000D01*
X120571428Y-20452380D01*
X120571428Y-20547619D01*
X121047619Y-20785714D02*
X121047619Y-21452380D01*
X121047619Y-20880952D02*
X121095238Y-20833333D01*
X121190476Y-20785714D01*
X121333333Y-20785714D01*
X121428571Y-20833333D01*
X121476190Y-20928571D01*
X121476190Y-21452380D01*
X122380952Y-20785714D02*
X122380952Y-21595238D01*
X122333333Y-21690476D01*
X122285714Y-21738095D01*
X122190476Y-21785714D01*
X122047619Y-21785714D01*
X121952380Y-21738095D01*
X122380952Y-21404761D02*
X122285714Y-21452380D01*
X122095238Y-21452380D01*
X122000000Y-21404761D01*
X121952380Y-21357142D01*
X121904761Y-21261904D01*
X121904761Y-20976190D01*
X121952380Y-20880952D01*
X122000000Y-20833333D01*
X122095238Y-20785714D01*
X122285714Y-20785714D01*
X122380952Y-20833333D01*
X123619047Y-21452380D02*
X123619047Y-20452380D01*
X124047619Y-21452380D02*
X124047619Y-20928571D01*
X124000000Y-20833333D01*
X123904761Y-20785714D01*
X123761904Y-20785714D01*
X123666666Y-20833333D01*
X123619047Y-20880952D01*
X124666666Y-21452380D02*
X124571428Y-21404761D01*
X124523809Y-21357142D01*
X124476190Y-21261904D01*
X124476190Y-20976190D01*
X124523809Y-20880952D01*
X124571428Y-20833333D01*
X124666666Y-20785714D01*
X124809523Y-20785714D01*
X124904761Y-20833333D01*
X124952380Y-20880952D01*
X125000000Y-20976190D01*
X125000000Y-21261904D01*
X124952380Y-21357142D01*
X124904761Y-21404761D01*
X124809523Y-21452380D01*
X124666666Y-21452380D01*
X125571428Y-21452380D02*
X125476190Y-21404761D01*
X125428571Y-21309523D01*
X125428571Y-20452380D01*
X126333333Y-21404761D02*
X126238095Y-21452380D01*
X126047619Y-21452380D01*
X125952380Y-21404761D01*
X125904761Y-21309523D01*
X125904761Y-20928571D01*
X125952380Y-20833333D01*
X126047619Y-20785714D01*
X126238095Y-20785714D01*
X126333333Y-20833333D01*
X126380952Y-20928571D01*
X126380952Y-21023809D01*
X125904761Y-21119047D01*
%TD*%
M02*
