M48
; DRILL file {KiCad 5.1.6} date Tue Sep 22 14:19:45 2020
; FORMAT={-:-/ absolute / metric / decimal}
; #@! TF.CreationDate,2020-09-22T14:19:45+02:00
; #@! TF.GenerationSoftware,Kicad,Pcbnew,5.1.6
; #@! TF.FileFunction,Plated,1,4,PTH
FMAT,2
METRIC
T1C0.200
T2C0.600
T3C1.000
%
G90
G05
T1
X15.625Y-17.0
X15.625Y-18.0
X15.625Y-20.0
X15.625Y-21.0
X15.625Y-22.0
X15.625Y-23.0
X15.625Y-24.0
X15.625Y-25.0
X15.625Y-26.0
X15.625Y-27.0
X15.625Y-28.0
X15.625Y-29.0
X15.625Y-30.0
X15.625Y-31.0
X15.625Y-32.0
X15.625Y-33.0
X15.625Y-34.0
X15.625Y-35.0
X15.625Y-36.0
X15.625Y-37.0
X15.625Y-38.0
X15.625Y-39.0
X15.625Y-40.0
X15.625Y-41.0
X15.625Y-42.0
X15.625Y-43.0
X15.625Y-44.0
X15.625Y-45.0
X15.625Y-46.0
X15.625Y-47.0
X15.625Y-48.0
X15.625Y-49.0
X15.625Y-50.0
X15.625Y-51.0
X15.625Y-52.0
X15.625Y-53.0
X15.625Y-54.0
X15.625Y-55.0
X15.625Y-56.0
X15.625Y-57.0
X15.625Y-58.0
X15.625Y-59.0
X15.625Y-60.0
X15.625Y-61.0
X15.625Y-62.0
X15.625Y-63.0
X15.625Y-64.0
X15.625Y-65.0
X15.625Y-66.0
X15.625Y-67.0
X15.625Y-68.0
X15.625Y-69.0
X15.625Y-70.0
X15.625Y-71.0
X15.625Y-72.0
X15.625Y-73.0
X15.625Y-74.0
X15.625Y-75.0
X15.625Y-76.0
X15.625Y-77.0
X15.625Y-78.0
X15.625Y-79.0
X15.625Y-80.0
X15.625Y-81.0
X15.625Y-82.0
X15.625Y-83.0
X15.625Y-84.0
X15.625Y-85.0
X15.625Y-86.0
X15.625Y-87.0
X15.625Y-88.0
X15.625Y-89.0
X15.625Y-90.0
X15.625Y-91.0
X15.625Y-92.0
X15.625Y-93.0
X15.625Y-94.0
X15.625Y-95.0
X15.625Y-96.0
X15.625Y-97.0
X15.625Y-98.0
X15.625Y-99.0
X15.625Y-100.0
X15.625Y-101.0
X15.625Y-102.0
X15.625Y-103.0
X15.625Y-104.0
X15.625Y-105.0
X15.625Y-106.0
X16.08Y-19.208
X16.08Y-85.383
X16.45Y-93.05
X16.7Y-96.3
X16.747Y-18.7
X16.755Y-88.483
X17.0Y-15.0
X17.395Y-19.702
X17.395Y-96.302
X17.5Y-99.1
X17.81Y-93.1
X18.0Y-15.0
X18.02Y-20.2
X18.045Y-90.578
X18.695Y-22.703
X18.695Y-90.578
X19.0Y-15.0
X19.345Y-22.203
X19.345Y-90.578
X19.995Y-90.578
X20.0Y-15.0
X20.02Y-20.7
X20.645Y-23.203
X20.645Y-90.578
X21.0Y-15.0
X21.295Y-90.578
X21.298Y-21.2
X21.942Y-21.7
X21.945Y-90.578
X22.0Y-15.0
X22.4Y-63.6
X22.595Y-64.278
X22.595Y-90.578
X22.6Y-98.55
X23.0Y-15.0
X23.1Y-84.9
X23.1Y-88.0
X23.25Y-98.55
X23.9Y-98.55
X24.0Y-15.0
X24.201Y-39.018
X24.201Y-45.419
X24.225Y-47.617
X24.251Y-40.631
X24.251Y-42.752
X24.345Y-28.55
X24.35Y-83.75
X24.6Y-84.9
X24.6Y-88.0
X24.6Y-89.2
X25.0Y-15.0
X25.073Y-80.133
X25.073Y-105.533
X25.4Y-79.5
X25.6Y-88.0
X25.6Y-90.7
X25.6Y-91.9
X26.0Y-15.0
X26.073Y-79.133
X26.073Y-104.833
X26.345Y-49.35
X26.37Y-29.35
X26.445Y-35.75
X26.5Y-78.5
X26.545Y-34.95
X26.55Y-91.15
X26.6Y-88.0
X26.6Y-91.9
X27.0Y-15.0
X27.073Y-78.133
X27.073Y-104.133
X27.5Y-77.6
X27.55Y-82.9
X28.0Y-15.0
X28.073Y-77.133
X28.073Y-103.433
X28.375Y-71.15
X28.5Y-76.6
X29.0Y-15.0
X29.073Y-76.133
X29.073Y-102.733
X29.139Y-36.55
X29.307Y-27.919
X29.434Y-26.84
X29.5Y-75.6
X30.0Y-15.0
X30.073Y-75.133
X30.073Y-102.133
X30.172Y-37.583
X31.0Y-15.0
X31.871Y-26.521
X31.942Y-29.273
X32.0Y-15.0
X32.045Y-40.35
X32.6Y-65.7
X33.0Y-15.0
X33.4Y-90.95
X34.0Y-15.0
X34.05Y-90.95
X34.145Y-32.45
X34.173Y-36.017
X34.545Y-40.35
X34.645Y-23.9
X35.0Y-15.0
X35.554Y-33.262
X35.57Y-48.203
X35.57Y-49.053
X35.595Y-45.35
X35.645Y-29.003
X35.695Y-38.7
X35.695Y-39.35
X35.85Y-90.55
X35.9Y-99.0
X35.945Y-34.95
X36.0Y-15.0
X36.073Y-103.433
X36.895Y-40.55
X37.0Y-15.0
X37.0Y-99.0
X37.05Y-92.95
X37.15Y-107.1
X37.895Y-42.95
X37.944Y-35.65
X37.945Y-38.15
X37.95Y-36.89
X38.0Y-15.0
X38.145Y-44.55
X38.18Y-47.7
X38.245Y-48.55
X38.345Y-29.35
X38.345Y-30.95
X38.345Y-34.15
X38.345Y-45.35
X38.5Y-74.6
X38.5Y-75.6
X38.5Y-76.6
X38.5Y-77.6
X38.5Y-78.6
X38.5Y-79.6
X38.5Y-80.6
X38.845Y-30.15
X38.845Y-31.75
X38.845Y-33.35
X39.0Y-15.0
X39.02Y-71.758
X39.02Y-90.579
X39.05Y-107.1
X39.62Y-23.925
X39.67Y-71.258
X39.67Y-90.579
X39.798Y-57.983
X39.9Y-70.3
X40.0Y-15.0
X40.025Y-37.675
X40.32Y-70.783
X40.32Y-90.579
X40.6Y-57.7
X40.97Y-70.258
X40.97Y-90.579
X41.0Y-15.0
X41.1Y-94.7
X41.37Y-55.133
X41.37Y-67.808
X41.62Y-69.783
X41.62Y-90.579
X42.0Y-15.0
X42.25Y-107.25
X42.27Y-90.579
X42.28Y-55.133
X42.6Y-54.6
X42.92Y-57.733
X42.92Y-90.579
X43.0Y-15.0
X43.195Y-54.608
X43.55Y-98.5
X43.57Y-58.758
X43.57Y-90.579
X43.8Y-53.3
X43.911Y-34.941
X44.0Y-15.0
X44.105Y-47.7
X44.15Y-107.25
X44.195Y-67.308
X44.2Y-90.6
X44.2Y-98.5
X44.445Y-29.775
X44.482Y-46.028
X44.645Y-38.703
X44.695Y-47.2
X45.0Y-15.0
X45.0Y-84.1
X45.2Y-53.6
X45.473Y-86.433
X45.7Y-58.2
X46.0Y-15.0
X46.073Y-77.133
X46.488Y-91.1
X46.5Y-50.8
X46.773Y-95.133
X46.795Y-29.775
X46.8Y-53.65
X46.82Y-36.175
X46.845Y-41.15
X46.845Y-41.727
X46.948Y-46.183
X47.0Y-15.0
X47.095Y-35.2
X47.1Y-91.1
X47.123Y-72.783
X47.2Y-85.35
X47.397Y-36.173
X47.4Y-74.6
X47.4Y-75.6
X47.4Y-76.6
X47.4Y-77.6
X47.4Y-78.6
X47.4Y-79.6
X47.4Y-80.6
X47.7Y-58.2
X47.88Y-88.684
X47.895Y-69.258
X47.9Y-21.4
X48.0Y-15.0
X48.068Y-50.65
X48.1Y-23.1
X48.173Y-92.233
X48.173Y-101.233
X48.37Y-55.383
X48.52Y-58.208
X48.53Y-82.958
X48.645Y-50.65
X49.0Y-15.0
X49.17Y-66.758
X49.173Y-87.533
X49.173Y-88.733
X49.18Y-82.958
X49.35Y-102.8
X49.4Y-48.8
X49.43Y-53.133
X49.505Y-55.058
X49.83Y-82.958
X49.845Y-68.808
X50.0Y-15.0
X50.145Y-25.15
X50.345Y-36.675
X50.4Y-50.4
X50.48Y-82.958
X50.5Y-22.2
X50.873Y-92.233
X50.873Y-101.233
X51.0Y-15.0
X51.0Y-22.8
X51.022Y-43.55
X51.068Y-25.15
X51.13Y-56.883
X51.13Y-82.958
X51.645Y-25.15
X51.78Y-56.883
X51.78Y-82.958
X51.8Y-23.9
X51.95Y-36.395
X51.95Y-102.8
X52.0Y-15.0
X52.073Y-92.233
X52.43Y-56.883
X52.43Y-82.958
X52.455Y-40.408
X52.455Y-43.608
X52.65Y-32.445
X52.845Y-48.383
X53.0Y-15.0
X53.05Y-36.295
X53.07Y-68.283
X53.073Y-86.933
X53.073Y-88.633
X53.073Y-92.233
X53.08Y-82.958
X53.373Y-101.233
X53.7Y-88.65
X53.73Y-56.883
X53.73Y-82.958
X53.873Y-92.233
X54.0Y-15.0
X54.05Y-53.05
X54.068Y-50.65
X54.129Y-45.949
X54.3Y-88.65
X54.4Y-91.45
X54.5Y-102.8
X54.645Y-50.65
X54.645Y-54.427
X54.85Y-27.425
X54.9Y-56.9
X54.973Y-79.133
X54.973Y-95.133
X55.0Y-15.0
X55.055Y-47.608
X55.5Y-92.4
X55.592Y-53.35
X55.6Y-54.2
X55.873Y-101.233
X55.9Y-74.6
X55.9Y-75.6
X55.9Y-76.6
X55.9Y-77.6
X55.9Y-78.6
X55.9Y-79.6
X55.9Y-80.6
X56.0Y-15.0
X56.1Y-50.145
X56.123Y-72.258
X56.614Y-98.886
X56.62Y-52.883
X56.62Y-66.258
X56.7Y-92.4
X56.75Y-96.8
X56.75Y-97.35
X56.95Y-102.85
X57.0Y-15.0
X57.0Y-45.945
X57.0Y-50.345
X57.07Y-57.483
X57.07Y-58.758
X57.4Y-90.35
X57.4Y-98.9
X57.45Y-27.425
X57.52Y-54.583
X57.52Y-66.758
X57.7Y-45.945
X57.7Y-50.345
X57.9Y-22.5
X58.0Y-15.0
X58.0Y-21.6
X58.035Y-58.703
X58.04Y-96.304
X58.1Y-27.4
X58.373Y-101.233
X58.4Y-46.4
X58.4Y-54.7
X58.685Y-59.203
X58.69Y-90.579
X59.0Y-15.0
X59.095Y-27.2
X59.095Y-50.15
X59.1Y-43.895
X59.1Y-45.945
X59.34Y-56.133
X59.34Y-90.579
X59.35Y-102.9
X59.595Y-27.55
X59.625Y-50.427
X59.98Y-56.133
X59.99Y-90.579
X60.0Y-15.0
X60.0Y-46.345
X60.0Y-102.9
X60.095Y-27.2
X60.1Y-24.0
X60.245Y-50.45
X60.295Y-37.8
X60.55Y-49.095
X60.595Y-27.55
X60.64Y-90.579
X60.645Y-62.755
X60.9Y-24.7
X60.95Y-43.895
X61.0Y-15.0
X61.073Y-57.108
X61.073Y-62.233
X61.098Y-27.2
X61.2Y-49.545
X61.25Y-48.645
X61.285Y-63.253
X61.29Y-90.579
X61.595Y-27.55
X61.648Y-57.784
X61.648Y-60.358
X61.925Y-63.778
X61.94Y-90.579
X62.0Y-15.0
X62.05Y-48.195
X62.3Y-27.5
X62.385Y-57.028
X62.395Y-59.758
X62.585Y-64.253
X62.59Y-90.579
X62.6Y-25.2
X62.6Y-45.9
X62.6Y-46.874
X62.695Y-36.2
X62.8Y-24.0
X62.92Y-36.75
X62.95Y-47.745
X63.0Y-15.0
X63.11Y-57.028
X63.12Y-60.783
X63.2Y-61.5
X63.235Y-64.753
X63.24Y-90.579
X63.245Y-35.65
X63.5Y-47.295
X63.795Y-60.258
X63.81Y-57.028
X63.85Y-98.55
X63.885Y-65.253
X63.89Y-90.579
X64.0Y-15.0
X64.5Y-92.55
X64.55Y-90.6
X64.55Y-98.55
X64.554Y-56.659
X64.645Y-59.758
X64.645Y-65.783
X65.0Y-15.0
X65.05Y-47.595
X65.156Y-56.057
X65.25Y-84.1
X65.345Y-60.258
X65.345Y-66.783
X65.973Y-76.133
X66.0Y-15.0
X66.068Y-50.65
X66.07Y-60.783
X66.07Y-68.808
X66.35Y-46.545
X66.4Y-91.1
X66.645Y-50.65
X66.7Y-61.3
X66.7Y-61.8
X66.9Y-68.8
X67.0Y-15.0
X67.1Y-81.1
X67.15Y-46.545
X67.5Y-91.1
X67.55Y-85.35
X67.64Y-99.46
X67.917Y-60.021
X67.95Y-46.545
X68.0Y-15.0
X68.195Y-67.808
X68.2Y-88.684
X68.273Y-91.933
X68.273Y-97.003
X68.518Y-59.42
X68.82Y-67.308
X68.85Y-35.295
X68.85Y-37.145
X68.85Y-82.959
X68.873Y-91.233
X69.0Y-15.0
X69.473Y-85.733
X69.473Y-88.633
X69.495Y-65.783
X69.5Y-82.959
X69.645Y-44.55
X69.645Y-45.35
X69.699Y-37.212
X69.7Y-35.5
X69.8Y-30.2
X69.8Y-32.2
X69.8Y-34.2
X69.845Y-41.65
X69.845Y-42.25
X70.0Y-15.0
X70.045Y-36.75
X70.045Y-48.15
X70.045Y-48.75
X70.145Y-66.258
X70.15Y-82.959
X70.173Y-91.233
X70.7Y-88.7
X70.795Y-66.783
X70.8Y-82.959
X71.0Y-15.0
X71.073Y-101.233
X71.3Y-54.245
X71.3Y-55.245
X71.3Y-56.245
X71.373Y-73.333
X71.373Y-91.933
X71.4Y-67.5
X71.4Y-68.8
X71.7Y-53.745
X71.7Y-55.745
X71.9Y-76.6
X71.973Y-97.033
X72.0Y-15.0
X73.0Y-15.0
X73.2Y-36.2
X73.2Y-37.2
X73.3Y-51.745
X73.3Y-57.845
X73.6Y-54.0
X73.6Y-56.0
X73.673Y-80.133
X73.8Y-58.245
X74.0Y-15.0
X74.1Y-32.8
X74.1Y-88.9
X74.2Y-41.65
X74.2Y-42.2
X74.3Y-37.2
X74.3Y-51.745
X74.3Y-57.845
X74.4Y-48.3
X74.4Y-49.2
X74.5Y-33.2
X74.65Y-88.9
X74.75Y-41.65
X74.75Y-42.2
X74.8Y-58.245
X75.0Y-15.0
X75.3Y-57.845
X75.5Y-54.0
X75.5Y-56.0
X75.55Y-91.5
X75.8Y-58.245
X76.0Y-15.0
X76.188Y-101.248
X76.5Y-98.9
X77.0Y-15.0
X77.4Y-55.195
X77.6Y-98.9
X77.7Y-90.35
X77.8Y-53.745
X77.8Y-54.745
X78.0Y-15.0
X78.4Y-56.8
X78.7Y-49.7
X78.773Y-78.133
X79.0Y-15.0
X79.3Y-57.9
X79.95Y-96.45
X80.0Y-15.0
X80.1Y-54.7
X80.1Y-55.3
X80.2Y-49.7
X80.4Y-52.2
X80.65Y-96.45
X81.0Y-15.0
X81.273Y-101.233
X81.64Y-44.7
X81.645Y-62.755
X81.75Y-24.675
X82.0Y-15.0
X82.255Y-28.703
X82.255Y-90.578
X82.275Y-102.95
X82.905Y-26.703
X82.905Y-90.578
X83.0Y-15.0
X83.555Y-26.203
X83.555Y-90.578
X83.873Y-101.233
X84.0Y-15.0
X84.205Y-25.703
X84.205Y-90.578
X84.3Y-98.4
X84.8Y-74.3
X84.81Y-44.203
X84.81Y-63.278
X84.85Y-98.4
X84.85Y-102.95
X85.0Y-15.0
X85.2Y-28.7
X85.51Y-43.703
X85.52Y-63.778
X85.8Y-84.15
X86.0Y-15.0
X86.285Y-28.203
X86.285Y-64.253
X86.373Y-101.233
X86.8Y-91.3
X87.0Y-15.0
X87.035Y-27.703
X87.035Y-64.753
X87.05Y-15.75
X87.05Y-26.7
X87.375Y-102.95
X87.7Y-91.3
X87.785Y-27.203
X87.785Y-65.253
X87.85Y-82.75
X88.0Y-15.0
X88.3Y-28.7
X88.515Y-41.208
X88.515Y-88.683
X88.873Y-103.433
X89.0Y-15.0
X89.165Y-41.708
X89.165Y-82.958
X89.173Y-91.333
X89.815Y-34.208
X89.815Y-82.958
X89.825Y-20.15
X89.85Y-102.95
X89.873Y-91.333
X90.0Y-15.0
X90.465Y-34.708
X90.465Y-82.958
X90.473Y-91.333
X90.5Y-107.0
X91.0Y-15.0
X91.1Y-20.15
X91.1Y-24.675
X91.115Y-35.683
X91.115Y-82.958
X91.373Y-88.133
X91.373Y-101.233
X91.7Y-19.5
X91.765Y-36.183
X91.765Y-82.958
X91.8Y-34.5
X92.35Y-102.925
X92.4Y-107.0
X92.415Y-43.208
X92.415Y-82.958
X92.415Y-86.433
X92.415Y-88.633
X92.7Y-35.9
X93.05Y-33.725
X93.065Y-45.208
X93.065Y-82.958
X93.1Y-44.0
X93.2Y-28.7
X93.715Y-37.708
X93.715Y-82.958
X93.725Y-20.65
X93.725Y-35.2
X93.75Y-88.75
X94.2Y-74.2
X94.3Y-17.8
X94.35Y-88.75
X94.37Y-40.683
X94.37Y-68.283
X94.4Y-37.7
X94.87Y-25.183
X94.87Y-69.258
X94.875Y-15.75
X94.875Y-24.6
X94.95Y-88.75
X95.345Y-29.183
X95.345Y-69.758
X95.35Y-15.25
X95.35Y-28.575
X95.725Y-102.125
X95.845Y-29.683
X95.845Y-70.258
X95.9Y-91.75
X96.1Y-15.25
X96.32Y-30.183
X96.32Y-70.783
X96.473Y-75.133
X96.845Y-30.708
X96.845Y-71.258
X96.9Y-29.7
X97.0Y-15.0
X97.0Y-98.6
X97.3Y-93.65
X97.345Y-31.208
X97.345Y-71.758
X97.873Y-36.7
X97.873Y-73.333
X97.873Y-85.733
X97.9Y-35.9
X98.0Y-15.0
X98.225Y-102.125
X98.4Y-98.6
X98.425Y-24.6
X98.425Y-37.2
X98.675Y-42.202
X98.675Y-96.302
X98.9Y-41.3
X99.0Y-15.0
X99.2Y-36.7
X99.325Y-42.702
X99.325Y-90.577
X99.8Y-102.825
X99.8Y-104.125
X99.875Y-28.575
X99.875Y-45.7
X99.948Y-61.758
X99.975Y-90.577
X100.0Y-15.0
X100.2Y-47.3
X100.3Y-53.0
X100.3Y-54.5
X100.3Y-55.3
X100.3Y-57.9
X100.3Y-60.6
X100.61Y-61.258
X100.625Y-90.577
X100.75Y-101.35
X100.773Y-102.333
X101.0Y-15.0
X101.2Y-44.2
X101.273Y-46.733
X101.275Y-90.577
X101.873Y-46.233
X101.925Y-90.577
X102.0Y-15.0
X102.575Y-33.202
X102.575Y-90.577
X103.0Y-15.0
X103.225Y-32.702
X103.225Y-90.577
X103.325Y-102.15
X103.875Y-32.202
X103.875Y-90.577
X104.0Y-15.0
X104.325Y-100.85
X104.5Y-96.35
X104.525Y-31.702
X104.525Y-90.577
X104.9Y-104.325
X105.0Y-15.0
X105.05Y-101.325
X105.125Y-26.7
X105.142Y-62.283
X105.2Y-96.35
X105.3Y-84.1
X105.7Y-55.0
X105.873Y-88.033
X105.873Y-104.333
X106.0Y-15.0
X106.1Y-85.8
X106.3Y-91.2
X106.7Y-56.0
X106.7Y-88.5
X107.0Y-15.0
X107.3Y-91.2
X107.4Y-85.4
X108.0Y-15.0
X108.0Y-56.6
X108.0Y-57.6
X108.0Y-58.6
X108.0Y-59.6
X108.0Y-60.6
X108.0Y-61.5
X108.073Y-72.783
X108.078Y-88.684
X108.2Y-70.2
X108.25Y-20.5
X108.25Y-21.1
X108.25Y-25.3
X108.25Y-107.1
X108.273Y-25.895
X108.273Y-26.498
X108.3Y-34.0
X108.3Y-34.7
X108.3Y-35.4
X108.425Y-102.125
X108.6Y-68.3
X108.72Y-72.258
X108.728Y-82.958
X109.0Y-15.0
X109.0Y-56.6
X109.0Y-57.6
X109.0Y-58.6
X109.0Y-61.5
X109.0Y-62.5
X110.0Y-15.0
X110.0Y-56.6
X110.0Y-57.6
X110.0Y-58.6
X110.0Y-61.5
X110.0Y-62.5
X110.0Y-63.5
X110.0Y-64.5
X110.15Y-107.1
X110.975Y-102.125
X111.0Y-15.0
X111.0Y-56.6
X111.0Y-57.6
X111.0Y-58.6
X111.0Y-61.5
X111.0Y-62.5
X111.0Y-63.5
X111.0Y-64.5
X111.1Y-68.3
X111.11Y-40.905
X111.11Y-41.905
X111.3Y-70.2
X111.373Y-24.233
X111.39Y-23.25
X111.4Y-30.8
X111.773Y-99.533
X112.0Y-15.0
X112.0Y-56.6
X112.0Y-57.6
X112.0Y-58.6
X112.0Y-61.5
X112.0Y-62.5
X112.0Y-63.5
X112.0Y-64.5
X112.05Y-31.95
X112.3Y-35.3
X112.4Y-48.3
X113.0Y-15.0
X113.0Y-56.6
X113.0Y-57.6
X113.0Y-58.6
X113.0Y-61.5
X113.0Y-62.5
X113.05Y-29.9
X113.075Y-34.25
X113.3Y-68.9
X113.3Y-69.5
X113.305Y-67.695
X113.35Y-107.1
X113.525Y-102.1
X113.7Y-48.9
X113.8Y-35.3
X114.0Y-15.0
X114.0Y-56.6
X114.0Y-57.6
X114.0Y-58.6
X114.0Y-59.6
X114.0Y-60.6
X114.0Y-61.5
X114.0Y-88.75
X114.05Y-31.95
X114.6Y-88.75
X114.8Y-30.8
X114.9Y-68.3
X115.0Y-15.0
X115.25Y-107.1
X115.6Y-70.2
X116.025Y-102.125
X116.4Y-18.0
X116.4Y-19.0
X116.4Y-20.0
X116.4Y-21.0
X116.4Y-22.0
X116.4Y-23.0
X116.4Y-24.0
X116.4Y-25.0
X116.4Y-26.0
X116.4Y-27.0
X116.4Y-28.0
X116.4Y-29.0
X116.4Y-30.0
X116.4Y-31.0
X116.4Y-32.0
X116.4Y-33.0
X116.4Y-34.0
X116.4Y-35.0
X116.4Y-36.0
X116.4Y-37.0
X116.4Y-38.0
X116.4Y-39.0
X116.4Y-40.0
X116.4Y-41.0
X116.4Y-42.0
X116.4Y-43.0
X116.4Y-44.0
X116.4Y-45.0
X116.4Y-46.0
X116.4Y-47.0
X116.4Y-48.0
X116.4Y-49.0
X116.4Y-50.0
X116.4Y-51.0
X116.4Y-52.0
X116.4Y-53.0
X116.4Y-54.0
X116.4Y-55.0
X116.4Y-56.0
X116.4Y-57.0
X116.4Y-58.0
X116.4Y-59.0
X116.4Y-60.0
X116.4Y-61.0
X116.4Y-62.0
X116.4Y-63.0
X116.4Y-64.0
X116.4Y-65.0
X116.4Y-66.0
X116.4Y-67.0
X116.4Y-68.0
X116.4Y-69.0
X116.4Y-70.0
X116.4Y-71.0
X116.4Y-72.0
X116.4Y-73.0
X116.4Y-74.0
X116.4Y-75.0
X116.4Y-76.0
X116.4Y-77.0
X116.4Y-78.0
X116.4Y-79.0
X116.4Y-80.0
X116.4Y-81.0
X116.4Y-82.0
X116.4Y-83.0
X116.4Y-84.0
X116.4Y-85.0
X116.4Y-86.0
X116.4Y-87.0
X116.4Y-88.0
X116.4Y-89.0
X116.4Y-90.0
X116.4Y-91.0
X116.4Y-92.0
X116.4Y-93.0
X116.4Y-94.0
X116.4Y-95.0
X116.4Y-96.0
X116.4Y-97.0
X116.4Y-98.0
X116.4Y-99.0
X116.4Y-100.0
X116.4Y-101.0
X116.4Y-103.0
X116.4Y-104.0
X116.4Y-105.0
X116.4Y-106.0
X116.4Y-107.0
X116.4Y-108.0
T3
X77.8Y-17.2
X80.34Y-17.2
X82.88Y-17.2
T2
G00X111.142Y-37.336
M15
G01X110.042Y-37.336
M16
G05
G00X111.142Y-45.976
M15
G01X110.042Y-45.976
M16
G05
G00X115.162Y-37.336
M15
G01X114.362Y-37.336
M16
G05
G00X115.162Y-45.976
M15
G01X114.362Y-45.976
M16
G05
G00X111.142Y-19.175
M15
G01X110.042Y-19.175
M16
G05
G00X111.142Y-27.815
M15
G01X110.042Y-27.815
M16
G05
G00X115.162Y-19.175
M15
G01X114.362Y-19.175
M16
G05
G00X115.162Y-27.815
M15
G01X114.362Y-27.815
M16
G05
T0
M30
