%TF.GenerationSoftware,KiCad,Pcbnew,5.1.6*%
%TF.CreationDate,2020-09-22T14:19:40+02:00*%
%TF.ProjectId,ISASTM,49534153-544d-42e6-9b69-6361645f7063,rev?*%
%TF.SameCoordinates,Original*%
%TF.FileFunction,Paste,Bot*%
%TF.FilePolarity,Positive*%
%FSLAX46Y46*%
G04 Gerber Fmt 4.6, Leading zero omitted, Abs format (unit mm)*
G04 Created by KiCad (PCBNEW 5.1.6) date 2020-09-22 14:19:40*
%MOMM*%
%LPD*%
G01*
G04 APERTURE LIST*
G04 APERTURE END LIST*
%TO.C,C36*%
G36*
G01*
X35708000Y-46729000D02*
X35432000Y-46729000D01*
G75*
G02*
X35314000Y-46611000I0J118000D01*
G01*
X35314000Y-46375000D01*
G75*
G02*
X35432000Y-46257000I118000J0D01*
G01*
X35708000Y-46257000D01*
G75*
G02*
X35826000Y-46375000I0J-118000D01*
G01*
X35826000Y-46611000D01*
G75*
G02*
X35708000Y-46729000I-118000J0D01*
G01*
G37*
G36*
G01*
X35708000Y-47699000D02*
X35432000Y-47699000D01*
G75*
G02*
X35314000Y-47581000I0J118000D01*
G01*
X35314000Y-47345000D01*
G75*
G02*
X35432000Y-47227000I118000J0D01*
G01*
X35708000Y-47227000D01*
G75*
G02*
X35826000Y-47345000I0J-118000D01*
G01*
X35826000Y-47581000D01*
G75*
G02*
X35708000Y-47699000I-118000J0D01*
G01*
G37*
%TD*%
%TO.C,C17*%
G36*
G01*
X38013000Y-41366000D02*
X37737000Y-41366000D01*
G75*
G02*
X37619000Y-41248000I0J118000D01*
G01*
X37619000Y-41012000D01*
G75*
G02*
X37737000Y-40894000I118000J0D01*
G01*
X38013000Y-40894000D01*
G75*
G02*
X38131000Y-41012000I0J-118000D01*
G01*
X38131000Y-41248000D01*
G75*
G02*
X38013000Y-41366000I-118000J0D01*
G01*
G37*
G36*
G01*
X38013000Y-42336000D02*
X37737000Y-42336000D01*
G75*
G02*
X37619000Y-42218000I0J118000D01*
G01*
X37619000Y-41982000D01*
G75*
G02*
X37737000Y-41864000I118000J0D01*
G01*
X38013000Y-41864000D01*
G75*
G02*
X38131000Y-41982000I0J-118000D01*
G01*
X38131000Y-42218000D01*
G75*
G02*
X38013000Y-42336000I-118000J0D01*
G01*
G37*
%TD*%
%TO.C,C13*%
G36*
G01*
X34146000Y-48915000D02*
X34146000Y-49191000D01*
G75*
G02*
X34028000Y-49309000I-118000J0D01*
G01*
X33792000Y-49309000D01*
G75*
G02*
X33674000Y-49191000I0J118000D01*
G01*
X33674000Y-48915000D01*
G75*
G02*
X33792000Y-48797000I118000J0D01*
G01*
X34028000Y-48797000D01*
G75*
G02*
X34146000Y-48915000I0J-118000D01*
G01*
G37*
G36*
G01*
X35116000Y-48915000D02*
X35116000Y-49191000D01*
G75*
G02*
X34998000Y-49309000I-118000J0D01*
G01*
X34762000Y-49309000D01*
G75*
G02*
X34644000Y-49191000I0J118000D01*
G01*
X34644000Y-48915000D01*
G75*
G02*
X34762000Y-48797000I118000J0D01*
G01*
X34998000Y-48797000D01*
G75*
G02*
X35116000Y-48915000I0J-118000D01*
G01*
G37*
%TD*%
M02*
